<svg width="798" height="175" viewBox="0 0 798 175" xmlns="http://www.w3.org/2000/svg"><title>konserthuset (2)</title><g fill="#0A4A8E" fill-rule="evenodd"><path d="M303.43 84.9c.8-.42 1.3-.64 1.85-.94-.43 2.98-.43 2.98 1.1 3.56.86-3.13.64-3.26-3.5-4.9 0 .8.23 1.47.23 2.3h.4zm383.6 87.84c33.43.87 55.6.87 81.5.22-1.57-.13-136.18-10.37-137.4-11.08-3.9-2.18 12.83-24.47 9.22-27.08-2.57-1.84 25.93-17.34 23.48-19.47l1.95-.26c-.2-.7-.43-1.3-.54-1.87-.15-.65-.22-1.3-.3-1.84l-2.35-1c1.3-1.52 1.8-2.17 1.9-3.04l-4.5 2.4c-.5-1.75-.9-2.84-1.1-3.92-.1-.44-.1-.87.1-1.1.2-.2.6-.2 1.1 0l4.5 1.96c0-.86-.2-1.73-.9-3.47l1.3.2.2-.7-2.6-1.3 1.9-1.3c-2-2-2.4-5.5-5.9-6.3.8-.9 1.5-1.3 2.4-2.2l-3.1-2c.4-.7.6-1.1 1.1-1.8-2-1.3-5.5.6-6.8-2.6l2.4-.5.2-.9-6.7-2 4.5-1.5c-.5-2.9-2-2.4-3.9-1.1.6-3.5.6-3.5-.9-3.5V79c-.9-.86-1.3-1.5-2-1.95-.5-.4-1.1-.62-1.8-1.05l.2.87-4.8 4.8c.6-3.9.6-3.9-2.2-5-.2 2.6-1.3 3.46-3.1 2.8l-.9 4.13c-.9-.43-1.7-.65-2.4-.87l-2.6-1.54c-1.7-.9-.2-1.8 0-2.9l.5-1.5 3.9 1.7 3.9-5.8-.2-.7-3.9 2.8c0-1.1-.2-2-.2-2.8 0-1.1.4-2 .6-3.1-3.7.2-4.3 1.3-3.9 4.8l-4 3.3c-.2-.9-.2-1.3 0-1.5.9-.9 2.4-1.6.6-3.3-.2-.2.4-1.5.9-2 .9-.7 1.9-1.1 3.2-1.8-1.1-1.1-2.2-2.2-3.3-2.8-.4-.3-4.1 3.2-3.9 3.7.2.4.9.6 1.5 1l-3.7 3.3c-.2 1.3-.5 2.2-.6 3.2-.2 1.5-1.9 3.3 1.9 3.7l-4.1 1.7c-.2-1-.5-2.1-.4-3 .2-.9.8-1.9 1.3-3h-1.2c-.7.2-1.1.5-1.7.8 0-.7-.2-1.3-.2-2l.6-3.3c.3-.9.5-1.7.9-2.8l-1.3-.3c-.2-1.1-.4-2-.8-2.9 0-.2-.9-.2-1.1 0-.9.9-.9 1.5 0 2.6.6.9 1.9 2.4.4 3.7l-1.8-.4-.5 5.2c-.9-.4-1.5-1.1-2-.9-1.7.5-2.4-.2-2.6-1.7-.4-1.7.4-2.8 2-3.3l2.2-1.1-3.7-2.4 2.8-7.6-4.5 4.2c-3.5 3.7-1.1 9.6-4.8 13.9-.4-.9-1.1-1.6-1.1-2.2-.2-2.6-.4-2.8-3-4.8l1.7 2.4-3.5.4v.8c.7.2 1.3.6 2 .9 2.8.8 5 5.4 3.9 8.2-.7 1.7-1.3 2.8-3.3.4v.9l2.6 2.1c-.9.4-1.8.4-2 1.1-.4 1.3-.7 2.8-1.3 4.1-.2 1.1-.7 2.1-1.3 3-.7.7-1.3 1.1-1.5 1.3 1.5 3 .2 5.7-.2 7.8-.5 2.4.2 5.5-1.8 7.6-.4-2.4-.4-4.8-.6-6.9 0-1.3-.7-2.4-.9-3.7-.2-3.3-.4-6.6-.4-9.8.2-1.8.9-3.3 1.3-4.8l1.8-5.4c0-1.1-.3-2 0-2.8.4-1.6.8-2.9 1.3-4.2.8-3.3 1.7-6.8 2.6-10.5l-2.2-.9.4.4c.7-.2 1.5-.5 1.7-.9 1.3-2.4 2.4-4.8 3.4-7.2.2-.4-.4-1-.4-1.5-.2.2-.9.7-1.1.9-.4 1.1-.7 2.2-.9 3.3-2-2.6-1.7-3.2 0-5 .4-.4.4-1.2.9-2.2-1.1.9-1.8 1.2-2 1.8-.6.9-1.5 1.9-1.5 2.9-.4 3.9-1.7 7.4-4.6 10.2-1.5-2.7-.9-5.6 1.7-6.3-2-1.7-.7-5.6-4.1-6.5.2.7.2 1.3.4 2.3-1.3-1-2-1.9-2.8-2.6h-.6c0 1.4 0 2.9.4 4.4.4 1.8 1.5 3.3 1.9 5 .2.9-.2 1.8-.2 2.7l-.9.2-5.4-13.4c-2.1 1.3-2.4 2.7-1.5 4.6.5 1 .2 2.3.5 3.5l-.9.3-2.6-1.5-1.1 2-1.8-.6.2.7-3 1.4c-.9.7-2 1.6-2.6 2.9-.7 1.3-1.1 2.9-1.6 4.4l2.8-1.3c.2-.1.2 0 .7 0l1.3 3.1c-1.5-.6-2.1-1-3-1.3 1.1 2.5 2.6 4.6 3.7 7 1.3 2.3 1.5 4.8.2 7.1-3.9-2.6-7.6-5.4-11.1-8 .5-1.9 3.5-2.1 2.9-5l-3 1.4-1.6-3.7c-.6 2.6-1.1 4.4-1.7 6.5l-1.8-2c-1.1 1.5 1.3 3.5-1.1 4.8-.9-1.5-1.9-2.2-3.7-.6-.3-1.3-.2-2.6-.4-3.9-.2-1.1-.6-2.2-1.1-3.2l-.4.2-.6 6.5-.7.2-1.68-2.8h-.6c-.2 3.7.64 7.8-1.75 11.5-.2-4.7-.6-5.8-1.9-6l.4 2.4c-.2.2-.2.2-.4.2l-2.2-2.4-.2 1.7c-1.1.4-1.74.8-2.2.7-.7-.2-1.4-.7-2.6-1.5.67 1 .67 1.7 1.1 1.9 1.5.8 2.4 1.7 2.2 3.4-.2 1.5.4 3.2-.2 4.1-1 1.3-.5 1.7 0 2.8.82 1.5 1.3 2.8 0 4.5-1.1 1.5-1.8 3.2-.7 5.2l1 2.1c-1.3 1.1-2.6 1.7-3.46 2.9-.4.3.7 1.6.9 2.6l1.1-1.5 1.5 2.4-4.4.2c.4.9 1.1 1.7 1.5 2.6.4.6.6 1.5 1 2.4-1.1.8-2.6 6.3-2 7.2l-1.3 1.5c1.5 1.1 1.9 3.9 5 3.2-.7.8-1.3 1.3-2 1.7-1.3.6-2 3.2-.9 3.9 2.1 1.5 0 3.4-.5 3.9-2.2 1.3-4.6 1.9-7 2.8-.2 0-.4-.2-.7-.4-1.7-.7-1.7-.7-3.2.2 1.1 2.2.9 3-1.3 3.2-2.6.2-5.4 0-8-.5-2.4-.5-4.6-1.3-7-2.2l-.56-1.8c-.68.5-1.1 1.1-1.77 1.5 0 0-.8-.6-.8-.9 0-1.3.2-2.6.4-3.9 0-.7.2-1.6 0-1.8-.7-.3-1.5-.5-2.2-.3-.2.3-.4 1.1-.4 1.8 0 .9.2 1.8.2 2.6.4 1.6-.7 1.8-1.8 1.6-.4-.3-1.1 0-1.7 0-.5 0-1.1.2-1.6.2-1.3-.2-2.8-.2-3.9-.7-1.3-.5-2.8-.9-3.9-1.8-.7-.7-1.1-2.2.4-2.9.5 0 .5-.8.7-1.3-2.6-1.3-1.3-3.9-1.5-5.8-.3-2 0-3.7 2.1-4.8.9-.5 1.3-2 1.9-2.9-.8-.4-1.9-.9-2.8-1.1l-13.9-3.1c-.6-.2-1.5-1.3-1.5-2.1-.2-1.9.2-3.7.2-5.4-.1-8.7-.4-17.4-.4-25.8 0-2.2-.8-3.5-2.5-4.3-2.8-1.6-5.9-2.9-8.9-3.9-3.5-1.6-7.2-3.1-10.9-4.4-1.7-.6-3.42-1.3-5.2-1.7l-10-2.5c-1.1-.2-2.4-.6-3.5-.6-5.63-.6-11.2-1.1-16.8-1.5-8.6-.4-17.2-1.3-25.9-1.5-7.6-.2-15.4 0-23 .5-8 .2-16.1.4-24.1 1.3-5 .7-9.8 2-14.6 3.3-3.7 1.1-6.7 3.5-7 8-.2 3-.6 5.8-1.1 8.7 0 .4-.4.6-.6 1.1l-.65-1.7-3.4 2.6c2.6 4.3-.9 7.1-3.5 10.8l-1.5-6.6h-1.7v1.9c-.4-.2-.8-.2-.8-.5V88c-.3 0-.5-.2-.7-.2 0 2-.2 3.9-.4 5.9 0 2 0 3.9.2 5.9l1.7 2c-3.3.5-2.9-2.6-5-3.7l-2 5.2c-.2.7-.2 1.1-.2 1.8.4 0 1 0 1.5-.2.4 0 .9-.4 1.3-.6.6-.2 1.5-.6 1.9-.4.6.5.6 1.5.9 2.2.2.5 0 .9-.2 1.3 1.1.3 1.9 0 2.6.5.9.5 1.3 1.3 1.9 2-.7.2-1.3.9-1.8.7-1.5-.2-1.9.4-2.2 1.7 0 .4-.4 1.1-.6 1.1-1.7.2-3.2.4-4.7 0-.9-.2-1.7-1.3-1.7-2.2-.2-.9.6-.9 1.7-1.1 1.3-.2 2.6-1.8 3.9-2.8.3-.3-.2-.9-.4-2-1.3 2.6-2.8 3.7-5.6 2.6.2-2.4 1.1-5 .4-7.2-.4-2.4-.2-3.9 1.5-5.4.5-.4.5-1.3.9-2l-2.2-.5v-8c0-4.8.2-9.5.5-14.3 0-1.5-.2-2.6-2-3.1-1.5-.5-1.7-1.8-1.7-3.3 0-3.7.2-7.6-.2-11.3-.6-5-3.7-9.8-3-15 .2-1.4 0-2.9 0-4.3 0-.7.2-1.6.7-1.8.4-.2 1.3.2 1.7.5 2.4 1.5 4.8 3.2 7.4 4.5 4.1 2.2 8.2 4.1 10.4 8.5.2.5 1.1.8 1.5 1.2.2-.2.4-.4.7-.4-.4-.8-.6-2.1-1.5-2.8-3.5-3.5-7-6.7-11.1-9.1-1.1-.6-2.2-1.9-3.1-2.8-1.1-1.1-1.9-2.6-3.2-3-2.8-1.3-4.1-3.7-5.8-5.9-.2-.2-.4-.8-.2-1.1 1.5-1.9-.4-2.8-1.1-4.1-.4-.4-.6-.8-1.3-1.5 2.9-.9 2-2.7 1.3-4.3-.8-2.4-2.3-4.4-2.1-7 0-1.3-.6-2.6-1.1-3.9-.6 4.6-1.1 9.1-1.5 13.5 0 .6-.4 1.7-.9 1.7-.8.1-1.9-.1-3-.4-.2 0 .2-1.3.2-2.2-.6-.6-1.5-1-2.2-1.7-1.7-1.7-3-3.7-4.8-5-1.1-.9-1.9-3.1-4.8-1.5 2.2 1.7 4.2 3.4 5.7 5l-2.2 5.5c1.8 2.6 1.8 2.6 5 2.8.9 0 1.5.2 2 .4l-2.1 10.9c2-.2 2-.2 3.9-3.1 1.1-1.8 4.6-1.8 5.4 0 .7 2 1.5 4.3 1.8 6.5.9 6.1 1.3 12.2 4.6 17.4 1.1 1.9 1.9 4.1 0 6.1-.2.4-.2 1.2 0 1.7 0 1.5.4 2.9.2 4.4-.2 3.7-.9 4.2-4.4 4.8V76l-3.9-4.1c-2.6-2.3-5.2-4.7-7.6-7.1-1.1-1.1-2.2-2.2-2.8-3.52-1.3-2.2-2.2-4.8-3.5-7.2-.8-1.1-2.4-1.94-3.2-3.03-2.6-2.6-1.9-4.7 1.1-6.3 1.1-.4 2.2-1.1 3.1-1.7.4-.2.6-.84.8-1.4l-.4-.4-7.4 4.57c-.8-.9-1.9-2-3-3.1l2.8-2.4-.2-.6c-1.1 0-2.4.2-3.5-.1-.8-.2-2.1-.8-2.4-1.5-.9-2.8-1.8-5.8-2.4-8.8-.9-3.2-1.6-6.4-4.6-8-.6-.4-1.5-.4-2-.2-.4.42-.6 1.3-.6 2 .2 1.1 1.1 2 1.1 3.1-.2 2.6-.6 5.3-1.1 8.2h-3c0 .9 0 1.9.2 2.7 1.9 4.4 3.7 8.9 5.9 13.2.8 2 .8 3.8 1.1 5.7 0 .6.2 1 .46 1.5.4-.1 1.3-.2 1.5-.5.6-1.4 1.3-1.2 2.4-.3.4.3 1.3.2 1.9.2.6 0 1.3-.4 1.6-.2.4.3.6 1.1.6 1.6-.24 2.7 0 5.4-.7 8-1.5 5.2 2.4 8.4 4.37 12.3.9 1.96 2.4 3.26 1.7 5.74-.3 1.3 0 2.9-.1 4.4 0 .6 0 1.3-.1 1.9l-.9 7.4c-4.55.6-4.8.85-4 5.6.1.6-.1 1.2-.1 1.8-.46 3.5-.76 7.2-1.2 10.7-.17.7-.67 1.4-.9 2.2-.4-.7-1.3-1.1-1.4-1.8-.4-2.6 0-5.4-2.8-7-.1-.2-.27-.4-.27-.7l-2.1-5.4c-2.1 1.3-2.6 1.3-3.7 0-1.3-1.73-2.3-3.7-3.9-5.2-1.1-1.1-1.8-3.5-4-2.83-1.8.6-2.4-.48-3.1-1.5.9-.2 1.5-.5 2.4-.5l.2-.6-2.3-1.7c-.4.8-.9 1.3-1.1 1.9-.1.9-.2 1.9.2 2.6.5.9 1.6 1.7 2.4 1.5 1.6-.2 2.3.5 2.7 1.8.6 2.4 1.7 4.1 4.3 4.8 0 .2 0 0 0 0l-2 2.1c1.2.2 1.98 0 2.68-.2 1.5-.4 2.6.4 3.2 2 1.1 1.9 2.4 4.3 4.1 5.9 1.3 1.1 1.9 1.9 2.1 3.9-1.2-.2-1.9-.5-2.8-.7-1.5-.5-1.9-1.6-2.6-2.6-.6-1.1-1.9-1.6-3.2-2.7l-1.5 1.1c-.8-1.1-1.6-2.4-2.6-3.1-.8-.7-2.4-1.8-3.7.4 1.1.82 2.2 1.3 3.1 2.12.8.8 1.3 1.9 2.4 2.4 1.3 1 1.5.8.6 2.6-2.2.2-2.8-2.4-5.1-2.9-2.4-.44-4.1.4-6.2.4-.4 1.8-.2 3.1 1.5 3.7 1.2.2 2.4.47 3.9.9l.9-1.1h.6c0 .46.1 1.3-.2 1.77-.9.9-1.9 1.7-3 2.4l-1.4-1.1c-.9.9-.9.9-.7 4.6-1.3.6-2.8 1.1-4 1.7-1.3.63-2.4 1.72-3.2 2.6-1.1-.4-1.9-.88-2.8-1.3-.6-.4-1.1-1.1-1.5-1.5-.6-.4-1.3-.66-1.9-1.1-.2.7-.4 1.3-.4 2.2.3 2.8 1.6 5.86-1 8.46-1.1-2.4-3.3-1.5-5-1.5-2 0-3.7 0-3.3 2.6-3.4 1.1-6.1-.7-8.4-2-.7-.2-.2-2.4-.44-3.7l-.7-.7-.2 1.95-.65-.4-.6-1.7-1.5 3.24c-.7-.3-1.8-.5-2-.9-.9-2.6 1.3-3.7 2.8-5.48.4 2 1.05 2.6 2.1 1.7v-6.2c-.9.2-1.5.2-2.2.4-.9-2.1.7-4.8-2.2-6.1l-1.5 1.3c-1.1-.4-1.9-1.3-2.4-1.1-.6.3-1.3 1.1-1.7 1.8h-.4l2-30.4c-3.4-1.4-4.1-2.5-3.7-5.1.2-1 .4-2.1.5-3.1.2-2.2-.2-4.8.7-6.5.9-1.8.6-2.5-.6-3.3.8-1.3 2.1-2.6-.6-3.1-.5 0-1.1-.8-1.5-1.3-1-1.3-1.8-3-2.9-3.9-1.3-1.3-1-2.4-.7-3.7.23-.6.7-1.3.9-1.9.43-2 .7-4.1 1.5-5.9.7-1.5.7-2.6 0-3.9-1-2-4.3-2.2-4.1-5.2 0-.9-1.3-2.2-1-3.1.9-2 2 .2 3.1.4 3.02.6 5.9 1.5 8.9 2.2.9.2 1.8-.2 2.7-.2-.5-.9-.8-1.8-1.3-2.4-.23-.4-.9-.4-1.2-.7-3.9-1.9-7.4-4.1-10.2-7.6-3.44-4.1-3.83-3.9-5.44.7h-.1c-1.3-.6-2.5-1.1-3.6-1.7-1.93-1.1-4.8-.5-5.9-3.1 0 0-1.4.2-1.5.6-.9 2.4-1.5 4.7-1.93 6.3-1.5.8-3 1.5-3 2.1 0 1.1.6 3 1.5 3.2 2.2.7 2.2 2 2.4 3.5.3 2.2 2.1 3.5 3.9 2.2 1.8-1.3 2.9-.2 4.2.7.9.4 1.7 1.3 2.6 2.2 2.2 1.9 4.1 3.7 3.1 7.4-.8 2.3-.2 4.9-.2 7.6 0 .4.1.8.4 1.3 1.6 1.9 3.1 4.1 5 5.8 2.6 2.2 1.7 4.5.9 6.9-.2.6-.9 1.1-1.5 1.9l2.3.8c-.2 1.9-.6 3.5-.6 5.2 0 2.2-.9 2.8-2.8 2.8-2 0-2.9.8-2.9 2.8.2 2.4.4 4.7 0 7.1-.8 4-2 7.6-2.9 11.6-.2.2.1.6.25.8.8 1.7-.3 3.5-1.8 3.5.2-1.1.6-2.2.4-3.1-.1-1.1-1-1.9-1.7-3-.6 1.3-1.5 2.6-.9 4.6.46 1.3.3 2.4-1.3 2.6l-.9-2.6-.8.2c.2 1.1.2 2.2.6 3.3.9 2 0 2.6-1.7 3.3-.3-2.6-.7-5 .53-7.2 1.1-2 2.2-3.9 3.3-6.1l-.7-.2c-3.8 1.1-5 4.3-5.2 8.2-1-1.1-1.5-2-2.1-2.2-2.4-1.1-2.8-2.8-1.8-5.2.7-1.8.7-3.5-1.5-4.4-1.3-.6-1.3-2.8 0-3.2 1.9-.6 1.3-1.7 1.1-3.2l-1.8.9c-.8-7-.8-7 .3-7.8.7 1.1 1.3 2.4 1.7 3.4 1.1 3.7 2 7.2 3.1 10.6.5.9 1.5 1.5 2.6 1.9.3 0 1.1-1.1 1.6-1.8 1.1-1.6 2.2-3.1 3.1-4.6.7-.9 1.3-1.8 2-2.9.4-.9.7-2.2.9-3.2.4-1.5.6-3.3.8-4.8l-.8-.2-2 3.4h-.7l-.3-4.2c0-1.3-.2-2.4-2.4-2.4-.2 2.8-.4 5.6-.8 8.2 0 1.1-.4 2.1-1.1 3 0 .4-1.3.4-1.3.2-.6-1.1-1.5-2.4-1.3-3.5.5-3.2-2.4-4.8-3.4-7.3-1.3-2.9-1.3-5.6-.4-8.4.9-3 2.2-6.1 3.7-9.1.7-1.3.5-2.4-.6-3.4-.7-.6-1.1-1.3-1.8-2.2l-3.4-5.7c-.9-1.3-1.74-2.4-2.2-3.7-.5-1.7-.84-3.7-1.1-5.6-.6-3.9-1.1-8.1-1.6-12l-1-6.7h-2c-2.2 6.1-.5 12.4.2 18.7-3.1-2.3-5.8-4.6-8.7-6.9-1.9-1.5-4.1-3.08-6.3-4.17-.6-.2-1.7.2-2.7.2v.7l13.9 10.8c-.8.4-1.3.8-1.9 1.1-3.24.6-3.8 2-1.7 4.9.9 1.1 1.3 2.1-.2 3.5-1.6 1.3-3.2 2.6-2.7 5.2 0 .2-.46.8-.85 1.3l-4.4 5.6c1.5 1.8 1.3 1.7 2.76-1.1 1.1-2.2 2.6-4.1 3.7-5.6 3 .9 5.4 2 7.8 2.4.8.2 1.9-.4 3-.7.5-.2 1.1-.6 1.6-.9 0 .9.2 1.7-.1 2.4-1.7 4-3.5 8-3.7 12.4-.1 1.5.2 3.7-2.1 4.4l-2.3-4.4c-1.9.9-2.8 2-1.9 3.8.9 1.8.2 3.3-1.1 4.6l-1-4.6-.9.2c.2.9.5 1.8.5 2.6 0 .7-.2 1.3-.4 1.8-.2-.4-.9-.6-.9-1.04v-5l-6.5 2.6-1.7-1.56c.7 3.5 5 3.9 4.6 8.26-.2 3.24-2 5.6-2.2 8.9-1.9-2.6-.4-4.36.7-6.5l-1.5-1.3-3.3 8.9c-1.7.2-2.6 1.5-2.4 3.6.2.6.2 1.4-.2 1.9-.8 1.3-1.9 2.6-2.6 3.5l1.1 2.2h-3c-2.5 2.8-1.4 7.4 2.3 8.3v6.5c0 .6.6 1.3 1.1 1.9 1.8 2 2 4.4 1.5 7-1.3 6.5-6.3 8.7-11.9 10-2.4.6-25.2 8.4-27.4 9.3-3.9 1.7-71.3 17.8-75 19.7 17.8 1.5 47 .2 83.7-.2H689l-1.3-.9zM158.86 59.44c-.6.53-1.6 2-2.52 2-1.1-.06-2.18-1.43-3.6-2.47l3.55-2.82 2.5 3.26v.1zm-10.7 74.95c1.74-.5 3.26-1 5-1.6 0 3.2-2.6 3.1-4.35 4.1l-.4-2.6-.2-.1zm-1.52-13.2c1.96-.2 4.35-1.8 5.65-3.9.4-.9 1.7-1.3 2.6-2.2 1.1 1.1.8 2.2.4 3.9-.7 2.8-.5 5.6-.7 8.7 0 1.5 0 3.2-2.4 3-1.1 0-2.2.4-3.1.6-1.5-3.3 2.6-4.6 2.6-7.8l-3.3 2.1c-.3-.2-.7-.9-1.4-1.3-.2 0-.9 0-1.1.2-.2.2 0 .9.2 1.3s.6.6.9 1.1l-1.3-.5h-.8c-.2 1.7-.7 3.4-.9 5l-4.6-.9c.2-1.3.4-3 1.1-4.6.2-.5 1.7-.2 2.8-.5.6-1.3 1.5-2.8 4.1-3.3l-1.1-1.3zm1.96-26.1l-2.84 4.1c-.22-.3-.43-.5-.87-.5l2.8-4.2.8.6V95zm1.73-5.9c0 .6-.22 1.1-.66 1.5 0 .2-.65 0-.65-.3-.22-.4-.43-1.1-.22-1.5.22-.7.87-1.1 1.1-1.8l.64.4c0 .6.22 1.3 0 1.9l-.2-.5zm2.6 17.1l.66.4-.5 3h.2l2.1-4.4.8.4c-.5 3 0 6.3-3.3 8.2-.7.4-.7 1.5-1.3 2.2-.2.6-.9 1-1.3 1.5-.2-.7-.7-1.3-.5-2 .2-.5.9-.9 1.3-1.3.9-1.1 1.5-2 2.2-3.1l-.7-.2-4.8 3.4-.5-.2 5.2-7.4v-.8zM159.9 94l-3.3 2.6-.47-.4-.88 3.26-2.2-2.6-1.94.44 2.4-10.4.7-.2c.9 1.5 1.8 3.25 2.6 4.77-.8 1.06-1.5 2.15-2.4 3.45l5.5-1.3.5.88-.4-.43zm0 8.06c-1.1 1.1-3.1 1.1-4.6 1.52l-.2-.67c1.1-1.5 2.4-3 3.5-4.5.2 1.5 3.62 2 1.5 3.9l-.2-.2zm.4-15.43c-.7-1.3.4-6.3 2.4-8.9 1.5 3 .4 6.5-2.2 8.9h-.2zm9.1 46.5c.2.63.2 1.72-.2 1.93-.67.23-1.5.23-2.4 0-.2 0-.45-1.07-.66-1.5 0-.2.2-.43.2-.65h-.2c.2-1.7.2-3.4.42-5.2 0-.4.42-.8.85-1.3.5.5.9.9 1.1 1.3l1.3 5.7-.4-.2zm3.7 1.5c-1.3.22-2.2-1.1-2.2-2.6 0-.88.23-1.75-.2-2.6-1.96-3.28-1.5-6.1 1.52-9.14l1.1 14.3h-.23zm5.63-1.74l2.4-2.6.86.6c-.5.9-.9 1.9-1.3 2.8l-2-1.1v.2zm.86-12.8l-2.8 3.2c-.7-2.4.2-3.3 2.8-3.3zm3.2 1.9c-.2 2.4-.7 4.8-1.1 7.4-.5 0-1.1.2-1.3 0-1.3-.9-1.1-.7-1.8.8-.7 1.3-2 2.4-3.1 3.9 0-2.2-.2-3.9.2-5.5.4-2.2 1.3-2.6 3.4-1.8.4.2 1.1 0 1.5 0 0-.5-.2-1.1-.2-1.6 0-1.1 0-2.4.2-3.7.2-.4 1.5-.9 2.1-1.1 0 .9.2 1.5.2 2.2l-.5-.9zm-4.3-86.2l-7-1.1c2.6-1.6 4.3-1.3 6.9.8v.2zm56.7 99.7l-3.7 1.5c0-.7-.2-1.5 0-2 .8-.9 1.9-1.5 3.7.4zm8.7-1.5c0-.5.8-1.1 1.5-1.8l.6.2.2 3.5-.8.4c-.5-.7-1.3-1.3-1.3-2l-.2-.5zm2.8-3.5l-3.7.9 2.4-3.9 1.5 3.2-.3-.2zm4.5-1.1l-1.3 2.8c-.2.2-.5.2-.7.2l-.5-3.7 2.6.8-.2-.3zm1.7 10c-.5.4-.9 1.1-1.3 1.1-1.1.2-2.4 0-3.7 0-.2-1.8.2-2.4 1.9-1.8.4.2 1.1 0 1.5 0h1.6c.2 0 .2.7.2.9l-.2-.3zm25.4-32l-.5 7.1c-1.5-1.1-1.3-5.5.4-7.2zm11.5-23c-.2 4.3-.7 8.7-.9 13 0 1.1.4 1.9.2 2.8-.2 1.9-1.3 3.2-3.1 4.1h.2c1.5 1 2.6 4.5 1.5 6-.2.4-1.5.4-2 .2-1.8-.5-3.1-.9-3.5 1.5 0 .6-1.3 1.1-2.4 1.7-.9-5.2.9-7.6 5.4-8.7.2 0 .4-.5.6-.7l-3-1.4c-.2.2-.9.9-1.5 1.3l-.5-.2 1.3-2.6 2.4.6.2-.2c-.5-.5-.9-1.3-1.3-1.3-2.2.2-2-1.1-1.5-2.6-2 0-1.8 1.3-1.8 2.6 0 1.5.2 3.2-1.9 3.5l.2-2.6c-4.8-.7-5-1.1-5-5.9v-4.3h.7l3.3 8.7c1.1-1.3 2.8-2.7.2-3.7-.4-.3-.4-1.3-.4-2-.3-2.2.8-4.6-1.1-6.6-.2-.2 0-1.1.2-1.5 1.3-2.4.6-4.6.2-6.8h-.7c-.2.6-.5 1.5-.5 2.2 0 .6 0 1.5-.3 2.6l-2.2-2.6c.9-.9.9-4.6-.7-7l-.2 4.8c-1.6-2.4-2.9-4.4-3.9-6.5-1.4-2.4.4-4.6.8-6.8.4-1.5.9-2.8 1.5-4.8 1.3 2 1.9 3.5 3 5 .9 1.1 2 2 3 2.8 2.6 2 5.8 3.7 7.8 6.3 1.3 1.5 3 2.8 3.4 4.8.4.9 1.5 1.3 1.9 2.2.4.4.8 1.1.8 1.7h-1zm27.6 27.3c.2 1.1.6 2.2.6 3.2 0 .2-1.3.4-2 .6l-.7-.4c.4-1.1.8-2.2 1.1-3.5l1 .2-.2-.2zm.8-13.1c.2-.3.6-.5 1.5-.5l-.7 3c1.5.8 2.1 2.3 1.3 4.1-.5 1.3-1.5 1.1-2.2.2-.7-.5-.3-6.3.2-7h-.2zm2.6-7.6l-2 6.3c-.7-2.9.2-4.8 2.2-6.1l-.2-.2zM544 118.2l-3.03 1.5c-.2-.2-.2-.4-.45-.63.2-1.3.85-2.2 2.4-2 .62 0 .84.85 1.3 1.3l-.24-.2zm7.18 13.48c-1.3-1.3-2.36-2.6-3.66-4.1 2.6-.2 4.13 1.53 3.9 4.35l-.2-.2zm31.34 8.7l.87 4.58c-2.2 0-4 0-4.2-2.4l3.4-1.96-.2-.2zm-2.4-15.2c-.2-.43 0-1.1.2-1.73 0 0 .68-.24.9-.24.2.5.6.9.6 1.3.2 1.1.4 2.2.6 3.7-.87-1.1-1.5-1.9-2.18-3h-.2zM563.6 138c-.23 1.08.86 2.82-1.75 2.6-.22 0-.65 1.3-1.1 1.96l2.4-.43v2.4l-2.17.64c.22.2.22.43.22.65.87.65 1.73 3.48 1.73 4.56l-.86 8.7h-2.6v-8.26c0-.87.64-1.52.86-2.4 0-.43 0-1.08-.22-1.5-.4-1.32-.2-1.75 1.1-1.75v-2.4l-1.5-.64.2 3.25c-.6-.65-1.3-.86-1.3-1.3 0-1.52-1.1-3.7 1.8-3.9v-3.3c1.3.6 2.4.88 3.7 1.3l-.4-.18zm2.16-49.54l-2.4-.66 1.53-4.12c2.3 1.52.4 3.04.8 5v-.22zm3.48 67.57c1.96 1.3 2.17 3.04 1.3 5.43 1.1-3.26 4.35-1.08 6.1-3.04l-2.84-1.95.22-1.96-4.13 1.3.8-.8c-.9-1.7.6-1.3 1.3-1.5.8-.2 1.9-.2 1.9 1.3 1.3-.8 2.4-1.9 3.9-2.4 1.1-.4 2.4-.2 3.7-.2v.7l-2.2.5c-.2 1.1.8 2.9-1.3 2.6l1.3 2.9c-3.1 1.8-5.7 3.5-8.5 5-1.6.7-3.3.9-5 .9-1.3 0-2.2-2.1-1.1-3.7 1.1-1.5 2.6-2.6 4.1-3.9l.2-.8zm8.04-62.36c.22-2.17-3.26-3.9-1.3-6.52 2.82 1.74 1.1 4.57 1.3 6.74v-.3zm1.52 24.77c.22 0 0 .65-.2.65-.45.2-.67.2-1.1 0l-2.4-1.1.88-2.2c-1.74.4-1.96-1.1-2.18-2-.2-.9.22-1.8.66-2.6h.87l.43 4.5v.2l2.6 2.8.44-.5zm-5.43 14.78l.65-.22c.44.43 1.1.87 1.1 1.3.2 1.74 1.73 3.48-.45 5-.2.22-.2.65-.2.87-.45.87-.88 1.52-1.32 2.4-1.08-.66-1.95-1.3-3.04-1.97-.4-.2-.6-.86-.6-1.3 0-.22.2-.87.5-1.1.5-.2 1.1-.42 1.8-.42 2.9-.22 3.1-1.74 2.2-4.13l-.4-.43zm-4.13 14.34l3.26-3.48.65.22.22 2.4-2.83 2.16-1.3-1.3zm4.78-.44c1.52-1.95 2.6-.65 3.48-.2-.43 1.3-.65 2.16-1.1 3.03-.2.65-.64 1.52-1.3 1.52-1.5.22-3.25.22-4.56.22 1.3-1.4 2.4-2.9 3.7-4.4l-.22-.2zm-5.45-41.74l1.82 3.26-.5.5-2.9-.87 1.3-2.82.1-.07zm1.52-1.9c.6.2 1 .77 1.6 1.3.4.2.4.7.8.86 2.4.87.8 2.05.6 3.05l-4.2-4c.2-.3.7-1.3 1-1.1l-.1-.3zm4.2-9.46c.6.28 1.1 1.63 1.5 2.54 0 .17-.7.87-.9.87-.7-.28-1.3-.76-2-1.17-.4.2-.6.87-.9 1.08-.6 0-1.1-.43-1.8-.65.2-.7.4-1.5.8-1.8.8-.6 2.1-1.3 2.9-1h.1zm2.8-24.34l-2.6.44-.5 3.1c-.6-.2-1.6-.2-1.8-.65-.7-1.3-1.1-2.82-1.6-4.34 1.8-.65 2.8.65 3.8 1.74l.6-3.26.9-.1c.4 1 .6 2 1 3.1l-.2.1zm7.4 9.67l-7.1 1.1.2.64-2.4 1.9-.7-.5 1.1-1.8-1.6-.7c.8-.5 1.3-.9 1.7-.7 1.5.4 1.7.2 1.5-1.6-.2-2 .6-3.7 1.3-6.1 1.3 1.9 2.4 3.2.4 4.7-.7.4-.5 1.7-.7 2.6.2 0 .6.2.9.2.6-1.3 1.3-2.9 2.4-4.8l2.2 4.5h.5zm-1 19.55c-.1 1.1 0 2.18 0 3.27 0 3.26-.3 3.9-2.3 6.25l2.5 1.26-.9.83c-2.4.5-2.9 0-3.3-3-.4-2.5-.2-2.9 2.8-3.5l-2.2-.7 1.5-1.3-3.1.9c-.5-3-.7-6-.9-9.1-.3-2.2-.7-4.6 1.5-6.4.4-.4.2-1.3.2-2.4 2.1 1.8 3.5 3.7 4.1 6.3.8 2.8-.9 5-1.1 7.6l.8.1zm4.8 9.35H587l-2.17-11.52 1.06-.2c.2 4.12 2.8 7.6 2.4 11.72zm.2 19.77c0 1.52-.9 2.83-3.1 1.96l-2-8.7 3.2.66.2-1.1-2.4-.2c.9-1.42 1.5-2.6 2.4-3.76.4.2.6.2.6.2 1.3 3.5 1.3 7.18 1 10.88l-.2.06zm1.7-50.4l-.9-.07.6-8.48 3 1.3-.2.44-1.8-.4c-.7 2.2 1.5 5-.9 7.2v.1zm-.7 9.08h-.9c.2-1.4.2-2.78.6-4.13 0-.22.6-.44 1.1-.6.2.4.6.82.6 1.1l-1.3 3.7-.3-.07zm18.7 52.3c.2-.3.8-.57 1.1-.55 1.3.1 2.4.3 3.4.48l.4 3.7c-1.7-.8-3.3-1.42-4.8-2.18-.3-.13 0-1.08.2-1.45h-.5zm5.8-18.9l.4 4.27-2.9-2.17 2.6-2.1h-.2zm-7.9-.66c1.5-2.06 4.1-2.48 5.4-.87-2.2 2.72-2.8 2.78-5.2.87h-.2zm8.2 13.26c-2.9-1.1-3.5-3.7-4.2-6.2l-.5.33-.5 2.02-1.7-2.5c.9-.22.9-2.4 2.2-.87.2.04.4-.06.6-.17 2.2-1.4 2.8-1.2 3.5 1.2.5 2 .7 3.9.9 6.1l-.4.2zm-9.4-4.5c.7.43 1.7.58 2.1 1.17 1.2 1.37 3.6 2.4 2.7 4.87l-1.1 1.67c-1.5-1.7-3-3.2-4.1-4.8-.4-.6.1-1.7.2-2.8h.1zm-2.3-4.57c.9-.73 2.1-1.45 3-2.06 1.6.22 2.2.65 1.3 2.17-1.4 2.4-2.9 2.7-4.2.87-.2-.3-.4-.8-.2-1v.1zm-1.9-3.43c.8-1.3 1.7-2.6 2.6-3.82.2-.22.8 0 1.2.08v.83c-1.8.2-1.1 1.9-1.8 2.6-.2.4-.9.6-1.3 1l-.7-.7-.2-.2zm-1.8 1.6c-.6-.86-1.6-1.73-1.6-2.6 0-.78 1-1.52 1.5-2.4l.5.45v4.23l-.6.44v-.1zm-4.9 1.38c.5 0 .8-1.74 1.3-2.83 1 .87 2.2 1.52 3.1 2.4.2.2-.2 1.08-.5 1.73-.9 1.1-2.1 1.96-2.8 3.26-.8 1.3-2.1 1.3-3 .87-.5-.2-.6-1.9-.5-2.8.3-1.3.4-2.8 2.3-3l.1.5zm11-31.73l-1.3 2.18 2.5.87-.5 2.17c-.2.87-.3 1.96-.6 2.82-.1.4-.7.8-.9 1.3 0 .6.1 1.7 0 1.7-3.4.4-1.7 3.9-3.2 5.4 1.4 2.6-1 4.8-1.1 6.7l-5.8.6c0-1.5-.2-3.5 0-5.2.2-2.4.4-4.8 1.3-7.2.9-3.1 2.4-5.9 3.7-8.7.4-.9 1.5-1.3 2.6-1.8l-1.7-1.5 4.7.2v.2zm0-8.25l-1.8-1.1.9-5.42h.7v6.52zm1.9 8.25l-.5.22c-.4-3.26-2.9-2.17-4.6-2.82-.4-.22-1.1-.87-1.1-1.1.4-1.08.9-2.16 1.4-3.25l1.5 3.9 1.7-4.12 1.6 6.52v.65zm1.4 21.73l1.7-3.04c2.1 1.52 1.7 2.4-2.9 5.43l.2-1.08c-1.5 0-2.8.2-4.3.2-.3 0-.8-1.1-.7-1.6.5-2.2 1.1-4.4 1.8-6.3.2-.7 1.1-.9 1.7-1.5.4.8 1.5 2.4 1.1 2.6-1.8 1.9.4 2.8 1.1 4.8v.4zm2.4-29.1c0 .2-.9 1.07-1.3 1.07-1.7-.2-2.1-1.3-2-2.82 2-.87 2.6.43 3.1 1.74zm2.9 14.1l-3.2-3.47c.5 1.1.8 2 .9 2.9.1.5-.2.9-.3 1.3-.3-.2-.9-.2-.9-.4l-1.4-5c4.9 0 6 1.1 5 4.6l-.2.2zm1.5-12.16c0 .44-1.1 1.3-1.7 1.3-.5 0-1.5-.65-1.8-1.3-1.1-2.17 0-4.13 1.1-6.08.2-.44.9-.44 1.8-.65.4 2.3.6 4.3.8 6.5l-.3.2zm.4 69.75l-2.2 1.1 1.5-5.44.6 4.12v.22zm2.4-31.5c-.2-2.4-3.3-4.13-.7-6.96.2 2.4 1.7 4.6.6 6.8v.2zm2.3-39.75l-.8 8.04-.7-.1c-.9-4.26-.4-7.4 1.4-7.98v.04zm3.2 31.08l-3.2 2.17 1.1-3.48 2.1 1.1v.1zm22.4-11.67l3 .8 1.4.22v.9c-2.2 0-4.5.23-6.6-.14-.5 0-.9-1.9-1.1-3-.1-.2 1-.7 1.6-1 .8-.3 1.6-.5 2.5-.8l-1.1 3.1.2.1zM644 123.7l-2.17-2.04c1.3-.22 1.96-.44 2.6-.22.66.22 1.36.43 2.05.87-.5.5-1 .9-1.3 1.6-.5.9-.9 2-1.6 3.7-.5-1.1-1.1-1.7-1.1-2.4.1-.4 1-.8 1.5-1.3l-.06-.1zm-15.65 21.18l3.9-2.17-3.93-.5.6-2.8 2.1 1.7-.27.5h3.7l.7 1.8-2.1.4 1.74.8c.8.7 1.1 1.2-.2 2.1-2.9 2-3.7 1.9-6.6-1.4h.3zm5.7-4.5l-3.7-.45c.87-1.1 1.53-2.06 1.74-1.95.7.28 1.3.97 2 1.52l-.5.87h.3zm-5.5-20.8c2.4.58 3.76 1.7 2.74 4-1.3 0-2.6.08-3.8-.05-.5-.07-1.2-.48-1.3-.92-.2-.3 0-1.1.3-1.5.6-.6 1.4-1 2.1-1.5zm2.4-7.64c.43.77 1.3 1.53 1.2 2.18-.16 1.8-1.8-.3-2.7.65l.67-2.48.8-.4zm4.34-24.98c-1.2 1.3-2.3 2.45-3.5 3.9-.2-.86-.8-1.88-.5-2.34.8-1.3 1.9-2.43 4.1-1.6l-.1.04zm-2.3 45.02l2.8 2.98-.7.86c-.5-.2-.9-.65-1.3-.65-.8.22-1.1-1.95-2-.2-.5-.67-1.6-1.75-1.4-1.97.8-1.3 1.7-2.6 3-3.7 1-.65 2.4 1.53 2.1 3.48-.9 0-1.6-.22-2.8-.22v-.58zm6.5-18.54c.1.66-.6 1.3-.9 1.96l-.6-.22 1.2 4.13c-.1 0-.2.3-.3.3-.7-.8-1.4-1.7-2.1-2.6-1.1-1.3-1.3-2.4 1.1-2.6l-1.8-2.4c2-.4 3.3.2 3.5 2l-.2-.4zM641 128l-2.1 2.17-2-2.17c-.2-.22-.46-.65-.35-.87.64-1.08 1.5-2.4 2.16-3.7.7.88 1.1 1.75 1.6 2.62.5.65.5 1.3.9 2.6l-.2-.65zm5.1-34.98l-2.2 3.26-2.7-6.3 4.8 3.26v-.22zm6.9 4.13c-.2.87-.9 1.52-1.7 2.6l.4 1.53-7.2-2.18 1.1-3.26.4-.2.6 2.6c1.4 0 3.3 1.3 4.37-1.3.2-.44 1.2-.66 1.8-1.1.1.87.5 1.52.3 2.18l-.04-.87zm3.8 4.34c-2-2.6-1.8-3.3.2-4.8.52 1.7 1.6 3.5-.2 5v-.2zm3.92 15.4l-7.8.6c.9-3.7-2.67-3.5-4.4-5.5l4.94-.5c.2-.7.5-1.3.74-2.2l1.35.6c-1 1.9.92 2.2 1.7 3l3.4 3.9v-.2zM604 100.8h.02-.1zm0 0h.02-.1zm0 0c.5-1.1-1.8-2.2-.4-3.5 0 0-.2-.5-.46-.5-1-1.1-3.3-.7-4.25.4l.4.2 2.4.8-.5.8c-.4-.2-.9-.47-1.1-.47l-3.1 2.37c.6 1.3 1.3 1.9 2.6.4.9-1.1 2.4-2.2 3.9-.7l.2-.2zm-30.98 53H573v.2h.07v-.2zM282.6 83c.67-1.3.6-1.94-.1-2.8h-.8l-3.23 11.94 1 .65c.2-.5.5-1.1.7-1.8.8-2.4 1.2-5.2 2.4-7.6V83zm3.2 20.44l-.2.22h.2v-.22zm378.7 3.9v.23h.17-.1l-.1-.22zM619 71.28c.87-2.46.22-3.33-2.83-2.83l3.05 2.83H619zm-55.43-5.65c.65-1.1.86-2.02 0-2.6-.44-.44-1.74-.36-2.4.06-.87.6-1.52 1.7-2.17 2.8l1.87.6 1.4.8c0 .4-.2.6-.2.8l-3.7.8c2.17.6 3.9 1.1 5.43 1.5.22 0 .66-.7.66-1.1 0-1.1-.66-2.6-.22-3.5l-.67-.5zm-5-1.6l.43-.5c-.65-.64-1.3-1.94-1.74-1.85-1.1.28-4.56-1.53-3.04 2.4.2.1 0 .27-.22.38-1.52 1.73-.22 2.86 1.3 4.56v-6.07l3.48 1.15-.2-.07zm-8.7.2l-.87.23 1.52 5.86.87-.2c-.5-1.96-.9-3.92-1.3-5.87h-.3zm-3.26 3.5l-2.3-.7.7 3.68 1.9-2.9h-.1zm4.6-4.8c.7-.56 1.1-1.52 1.6-2.28-.8-.2-1.6-.87-2.4-.87-1.3.44-2.6 1.1-4.2 1.74 1.3.88 2.1 1.53 3.1 1.75.6.22 1.5.22 2.1-.22v-.1z"/><path d="M666.67 102.6c-.2-1.15-1.04-2.43-.78-3.4.3-1.18.5-2.14-.6-2.62-.7-.28-1.9 0-2.5.5-.7.76-1.1 1.96-1.8 2.98.6.1 1.3.17 1.9.3.6 0 1.1.22 1.5.44 0 .22-.2.43-.2.87l-3.5 1.3c2.1.22 3.9.44 5.6.65.2 0 .6-.87.4-1.08l-.4.06zm-8.56 1.22l-1-6.04 3.5.65.3-.65c-.8-.57-1.7-1.74-2.2-1.57-1.3.5-5-.7-2.6 2.9 0 .3-.2.5-.2.5-1.3 2 0 3.1 1.8 4.4h.7zm-10.4 3.3l1.3-3.2c-.4-.08-1.3-.23-2.6-.38l1.1 3.58h.2zm4.2-7.23c-.4.1-.6.2-.8.4l2.4 5.5.7-.3-2.2-5.7zm-4.3-2.1c1.3.5 2.2 1 3.3 1.2.7.1 1.5-.2 2-.7.5-.6.7-1.6 1.1-2.4-.8-.2-1.9-.6-2.6-.4-1.3.6-2.4 1.5-3.9 2.4l.2-.2zm70.4-4.2l3.2 2.3c.5-2.6-.6-3.3-3.4-2.4h.2zm54.6 38.9l2-.6c-.4-.9-.6-1.3-.8-2l-.6-1.7-2.6-.7c1.1-1.8 1.6-2.4 1.3-3.3l-4.1 3c-.8-1.6-1.3-2.6-1.7-3.7-.2-.5-.2-.9 0-1.1 0-.2.5-.2.9-.2l4.8 1.3c-.2-.9-.6-1.8-1.3-3.3h1.1v-.7l-2.6-.9 1.7-1.5c-2.4-1.8-3.2-5-6.9-5.5l2-2.4-3.5-1.3.8-2c-2.4-.9-5.2 1.5-7.1-1.5l2.2-.7v-.7l-7.2-.9c1.5-.9 2.8-1.5 4.1-2.2-1.1-2.9-2.4-2.2-3.9-.5 0-3.7 0-3.7-1.5-3.5l.4 2.8-2.4-1.5c-.6-.5-1.3-.7-1.9-.9l.2.6-3.9 5.5c0-4.1 0-4.1-3-4.6 0 2.6-.8 3.5-2.6 3.3l-.2 4.1c-1.1-.2-1.9-.4-2.6-.7-.8-.2-1.9-.6-2.8-1.1-1.9-.6-.4-1.9-.4-2.8V99l4.1 1.1c.9-1.7 2-4.1 3-6.5l-.5-.42c-1.1.9-2 2-3.5 3.3l-.7-2.6c0-1.1.2-1.95.2-3-3.7.9-4.3 2-3.3 5.4l-3.5 3.7c-.2-.7-.4-1.3-.2-1.5.9-1.1 2.2-2 .2-3.3-.2-.2.2-1.5.5-1.95.7-.9 1.6-1.3 3.1-2.4-1.3-.9-2.6-1.7-3.7-2.2-.6-.3-3.7 3.7-3.5 4.3.2.4.9.4 1.5.84l-2.6 2.4-.2 3.23c0 1.53-1.5 3.7 2.4 3.5l-3.9 2.4c-.2-.9-.9-1.97-.9-3.06 0-.9.5-2 .9-3.1-.8.2-1 .2-1.3.2l-1.5.83c-.2-.66-.4-1.3-.4-1.74v-3c0-.87.2-1.7.4-2.8h-1.3l-1.3-2.6c0-.27-.9 0-1.1.2-.7.83-.7 1.5.4 2.4.9.82 2.4 1.9 1.1 3.7l-1.7-.27.5 5.2c-.8-.46-1.7-.9-1.9-.68-1.5.7-2.4 0-2.8-1.3-.6-1.7 0-2.8 1.6-3.4.5-.4 1.1-.6 2-1.3l-4.1-1.7 1.5-8-3.9 4.8c-2.9 4.2.4 9.7-2.4 14.5-.7-.66-1.3-1.1-1.5-1.75-.9-2.4-.9-2.6-4-4.15l2.2 2.2-3.4 1.1v.87c.7.2 1.3.4 2 .4 3 .5 5.8 4.6 5.2 7.5-.5 1.8-.9 2.8-3.3.9v.9l2.8 1.6c-.9.4-1.8.87-2 1.3-.4 1.3-.4 2.8-.6 4.3-.2 1.1-.4 2.2-1.1 3.1-.2.66-1.1 1.3-1.3 1.5 2 2.85 1.3 5.7 1.1 8.1-.1 2.6 1.1 5.2-.4 7.8-.9-2.2-1.3-4.6-1.9-6.8-.2-1.1-1.1-2.2-1.3-3.3-.8-3.23-1.6-6.5-2-9.8-.2-1.5.3-3.2.5-5l.8-5.6c-.2-1.1-.6-1.94-.4-2.8 0-1.3.5-2.83.5-4.35.2-3.2.7-6.7.9-10.4l-2.3-.4V91l.5.2c.7-.4 1.3-.64 1.5-1.3.9-2.4 1.8-5 2.4-7.6.3-.2-.4-.9-.6-1.3-.2.4-.9.75-.9 1.1-.2 1.07-.4 2.15-.4 3.46-2.2-2.2-2.2-2.8-.6-5 .5-.4.5-1.2.7-2.3-.8 1.1-1.3 1.5-1.7 2.2-.4 1-1.1 2.1-1.1 3.07.2 3.9-.4 7.6-2.8 10.84-2-2.6-1.7-5.4.9-6.5-2.4-1.5-1.5-5.44-5.2-5.9l.7 2.3c-1.3-.86-2.2-1.5-3.3-2.1l-.4.1c.4 1.3.4 2.8 1.1 4.1.8 1.6 2.1 3.05 2.8 4.6.4.8.2 1.84.2 2.75l-.9.4-7.6-12.4c-2 1.5-2 3-.9 4.5.6.84.9 2.15 1.1 3.23l-.7.2c-.8-.2-1.7-.6-2.8-.8l-.6 2-2-.64.2.7-3 2.2c-.7.7-1.6 1.8-2 3.1-.4 1.5-.7 3-.9 4.6l2.8-1.5c.2-.2.4 0 .6-.1l2 2.8-3.1-.8c1.6 2.4 3.3 4.3 4.8 6.3 1.8 2.2 2.4 4.6 1.3 7l-12.2-6.1c0-1.9 3.1-2.8 2-5.4l-2.4 1.7-2-3.5c-.2 2.6-.4 4.6-.6 6.7l-2.2-1.7c-.6 1.8 2 3.5-.2 5-1.1-1.3-2.1-1.7-3.7.2-.4-1.3-.6-2.6-1-3.9-.2-1.1-.8-2.1-1.5-3l-.2.2.2 6.3-.7.4-1.9-2.6h-.7c.4 3.9 2 7.6.2 11.8-1.1-4.8-1.5-5.6-2.8-5.6l.7 2.4-.4.2-2.4-2.1v1.7c-.8.4-1.5 1.1-2.1 1.1-.6 0-1.5-.7-2.8-1.1.6.9 1.1 1.7 1.5 1.7 1.6.5 2.4 1.3 2.6 3.1 0 1.3.9 3 .3 3.9-.7 1.3-.2 1.7.6 2.8.9 1.3 1.8 2.6.7 4.4-.9 1.8-1.3 3.5 0 5.2l1.5 2c-1.2 1.3-2.4 2.2-3 3.5-.2.5.8 1.5 1.5 2.6l.6-1.7 2 2.1-4.3.9 1.9 2.4 1.5 2.2c-.8 1.1-1.5 6.5-.8 7.4l-1.1 1.7c1.8.9 2.6 3.5 5.4 2.4-.4.9-.9 1.5-1.7 2.2-.8.7-1.3 3.3-.2 3.9.5.2.7.4.9.7l22.8.2c.2-.4.7-.7 1.5-.9-.1-1.1-.2-1.9-.5-3l3.7.7c0 1.1 1.3 2.6-1.3 2.8 0 0-.2.2-.2.4l18.3.2c-.2-.2-.4-.6-.4-1l3.1-2.6 1.3 3.5 51.3.2c2.6-7.6 6.3-17.1 3.9-18.2-2.8-1.5 22.9-21.3 20.3-23l.9 3.2zM655 154.1c-.94.64-1.9 1.23-2.83 1.84l-.64-.6c0-1.3.6-2.26 2.04-2.28.42 0 .92.66 1.4 1.05zm9.13 12.05l-4.4-3.6c2.35-.9 4.1.86 4.3 3.47l.07.13zm27.3-12.8c0-.1.67-.37.8-.3.37.43.74.9.9 1.3.4 1.1.64 2.2 1.1 3.7-1.1-1.1-2-1.7-2.63-2.6-.3-.45-.15-1.1-.07-1.75l-.02-.35zm-3.8-4.1c-.8-.2-1.5-.46-2.5-.7l.64-2.4v-.06c-1.72.6-2.16-.7-2.4-1.5-.4-.7 0-1.8 0-2.6h1l1.15 4.5h.07c1 .9 2 1.5 3 2.2.1.2 0 .6-.3.8-.2.2-.7.2-1 .2l.2-.6zm-4.12-25.1c-.3-2.18-3.9-3.27-2.4-6.3 2.9 1.3 1.8 4.33 2.4 6.5v-.2zm-.9 46.05c0-.2.3-.9.5-1.1.5-.24.9-.46 1.6-.68 2.9-.66 2.9-2.18 1.3-4.35.3 0 .5-.25.7-.47.5.43 1.4.65 1.4 1.1.5 1.72 2.2 3.24.5 5-.2.2 0 .63-.2.85l-.8 2.6c-1.1-.4-2.2-.8-3.2-1.5-.2-.2-.6-.63-.8-1.1l-.4-.4zM671.3 121l-2.4-.22 1.1-4.33c2.6 1.08.87 3.04 1.74 4.78l-.43-.22zm5.9 16.73l2.4 3.03-.26.64-2.83-.44.9-3.04-.2-.22zm1.3-1.97c.62.2 1.3.65 1.93 1.1.43.2.65.63.87.85 2.6.5 1.3 2 1.1 2.8l-4.57-3.2c.2-.2.63-1.3.85-1.3l-.24-.2zm2.8-10c.87.22 1.52 1.52 1.95 2.4.2.2-.43 1.1-.65 1.1-.64 0-1.3-.46-1.95-.9-.2.44-.45 1.1-.67 1.3-.45.23-1.1 0-1.76-.2.2-.66.2-1.3.64-1.75.85-.6 1.94-1.5 2.8-1.3l-.42-.6zm-.87-24.34c-.66.2-1.53.66-2.4.87v3.2c-.43 0-1.52 0-1.73-.5-.86-1.1-1.3-2.6-1.95-3.9 1.75-.9 2.84 0 3.9 1.1 0-1.1 0-2.2.24-3.5h.9l1.5 3-.4-.5zm8.9 8.48l-6.73 2.17.44.65-1.95 2.16-.7-.42.8-1.75-1.5-.4c.9-.4 1.3-.9 1.8-.9 1.8.2 1.8 0 1.4-1.7-.4-1.7.2-3.9.4-6.3 1.7 1.8 2.8 2.9 1.3 4.8-.5.7-.2 1.8-.2 2.8l.8.2 1.5-5 3 4.4-.4-.6zm2.18 19.55l.7 3.25c.7 3.24.5 3.9-1.3 6.5l2.9.87-.7.86c-2.2.86-2.6.42-3.5-2.4-.9-2.4-.5-2.83 2.4-3.7l-2.2-.43 1.5-1.52c-1.3.67-2 .9-2.8 1.3-.7-2.8-1.5-5.84-2.2-8.9-.5-2.16-1.3-4.55.6-6.5.5-.22 0-1.3 0-2.2 2.6 1.54 3.9 3.28 5 5.67 1.3 2.84 0 5.23.3 7.83l-.6-.65zm6.4 8.7l-1.3.42-3.9-11.1 1.1-.43c.9 3.9 4.1 6.96 4.4 11.3l-.2-.22zM701 158c.2 1.3-.45 2.8-2.6 2.38l-3.7-8.7h3.24v-1.08l-2.4.22 1.97-4.13c.7.2.9.2.9.2 1.8 3.4 2.4 6.9 2.9 10.8l-.2.2zm-6.34-50.44h-.95l-.6-8.48 3.3.98v.6l-1.8-.2c-.2 2.38 2.4 4.88.5 7.16l-.2-.06zm.78 9.03l-.86.1c0-1.3-.1-2.7-.07-4.1 0-.3.6-.5.9-.7.2.4.7.8.7 1.1-.1 1.3-.4 2.6-.6 3.8l.1-.3zm29.22 28.9l1.02 4.1-3.26-1.8 2.32-2.4h-.07zm-7.9.5c1.23-2.4 3.55-3.1 5.2-1.8-1.95 3-2.38 3.2-5.2 1.7zm10.12 11.8c-3.04-.7-3.96-3.2-5.1-5.5l-.47.3v2l-2.3-2.2c.7-.4.5-2.4 2.1-1.3l.4-.2c1.9-1.8 2.6-1.7 3.5.6.7 1.9 1.2 3.8 1.9 5.9h.2zm-5 7.1c.15-.4.65-.7 1.04-.7 1.23-.1 2.4-.1 3.45-.1l.87 3.6c-1.83-.5-3.48-.9-5.05-1.4-.2 0-.3-1-.1-1.4l-.2-.1zm-4.46-10.2c.8.2 1.75.3 2.4.8 1.37 1.2 3.92 1.7 3.35 4.4 0 .4-.22.7-.65 1.7-1.74-1.5-3.48-2.8-4.78-4.3-.44-.7-.22-2-.22-2.8h-.1zm-3.03-4.2c.9-.9 1.9-1.8 2.7-2.6 1.6 0 2.3.4 1.7 1.9-1.1 2.6-2.6 3.1-4.2 1.5-.2-.3-.5-.9-.5-.9h.1zm-2.4-3.1c.6-1.5 1.3-2.9 2.1-4.3.1-.3.8-.3 1.2-.3.1 0 .2.6.2.6-1.7.4-.8 1.9-1.4 3-.3.4-.8.6-1.2 1.1l-.9-.7-.2.3zm-1.4 1.8c-.7-.8-1.8-1.4-2-2.3-.2-.8.7-1.7 1.1-2.5.2 0 .4.2.6.2l.6 4.1-.5.4h-.1zm-3.8-.9c1.1.6 2.4 1.1 3.4 1.9.2.2 0 1.2-.2 1.7-.7 1.3-1.7 2.4-2.2 3.7-.6 1.5-1.8 1.7-2.8 1.4-.6-.1-1-1.6-1-2.5 0-1.3-.1-2.8 1.8-3.3.4-.2.6-2 .8-3.1zm4.9-30c-.5.9-.8 1.5-1.1 2.3l2.7.4v2.2c0 1 0 1.9-.2 2.8-.2.6-.7 1.1-.9 1.5.2.6.4 1.7.4 1.7-3.3 1.1-1.1 4.1-2.4 5.9 1.7 2.5-.2 4.9 0 6.7l-5.7 1.7c-.2-1.4-.7-3.3-.9-5.1-.3-2.4-.3-4.8.2-7.2.4-3.1 1.3-6.3 2.4-9.2.2-.9 1.3-1.3 2.1-2.2l-2-1.1 4.7-.5.3-.3zm-1.4-8.1l-2-.7.1-5.5.8-.1 1 6.1v.1zm3.2 7.9l-.6.5c-.9-3.2-3.2-1.7-5-2.1-.5 0-1.2-.7-1.2-.9.2-1.1.5-2.2.9-3.5l2.2 3.7 1.1-4.4 2.5 6.3v.2zm4.8 21.3l1.1-3.4c2.4 1.2 2 2.3-2 5.8v-.9c-1.3.2-2.7.6-4.2.8-.2 0-.9-.9-.9-1.3.2-2.2.4-4.3.8-6.4.1-.7 1-1.1 1.5-1.6.6.8 1.7 2.1 1.5 2.4-1.4 2.3.8 2.8 1.9 4.5v-.1zm-2.4-29.1c.1.2-.7 1.3-1 1.3-1.8.1-2.4-1-2.4-2.5 1.7-1.1 2.6.2 3.2 1.3l.1-.1zm5.1 13.4l-3.5-2.8c.6 1.2 1.1 1.9 1.3 2.6.2.4 0 .9 0 1.3-.2 0-.9 0-.9-.2-.7-1.3-1.3-2.8-2.2-4.6 5-.7 6.1.2 5.6 3.9l-.4-.3zm-.3-12.2c.2.5-.9 1.5-1.3 1.6-.7.1-1.5-.5-2-1-1.6-2.2-.7-4.2.2-6.1.2-.5.6-.5 1.5-1.1.6 2.2 1.5 4.3 1.7 6.3l-.2.2zm8.9 37.6c-.4-2.2-3.7-3.5-1.5-6.8.6 2.4 2.4 4.3 1.7 6.7h-.2zm-3.7-40l.6 8.1h-.6c-1.6-3.9-1.6-7.2.2-8.1h-.2zm7.8 30l-2.8 2.8.6-3.6c.6.2 1.3.5 2.1.8v-.1zm20.4-15l3.2.2h1.5c0 .5.2.7.2.9-2.2.4-4.1 1.1-6.3.9-.5 0-1.1-1.8-1.5-2.8 0-.3.9-.9 1.5-1.1.6-.5 1.5-.7 2.4-1.1l-.5 3.2-.7-.2zm1.5 19.8c-.5-.5-1.3-.9-2.4-1.8 1.3-.5 1.9-.7 2.6-.7.8 0 1.5.4 2.1.6-.3.6-.7 1.1-.9 1.7-.5 1-.7 2.1-1.1 3.9-.7-.9-1.3-1.3-1.3-2 0-.4.9-1.1 1.3-1.5l-.4-.5zm-12.7 23c1.1-.9 2.1-1.7 3.5-2.8h-4l.2-2.9c.9.4 1.5.8 2.4 1.2l-.2.6 3.7-.6.8 1.7-2 .6c.6.1 1.3.2 1.7.5 1.1.5 1.5.9.4 1.9-2.4 2.4-3.2 2.4-6.5-.4h-.2zm4.8-5.3H744c.8-1.3 1.3-2.4 1.5-2.2.8.2 1.5.6 2.3 1.1l-.25.8.1.1zm-8.7-19.7c2.4.2 4 1.1 3.3 3.5-1.3.2-2.6.5-3.9.5-.7 0-1.3-.2-1.5-.7-.3-.4-.3-1.2 0-1.5.4-.8 1-1.3 1.7-1.9l.3-.1zm1.1-7.9c.4.6 1.5 1.3 1.5 1.9 0 1.8-2 0-2.6 1.1l.2-2.6.6-.4h.2zm.2-25.5l-2.8 4.3c-.5-.8-1.1-1.7-.9-2.2.6-1.4 1.5-2.7 3.7-2.2zm4.8 44.8l3.2 2.5-.6.8c-.5-.2-1.1-.7-1.3-.6-.9.2-1.6-2-2 0-.7-.7-2-1.5-1.8-1.9.4-1.5 1.3-3 2.4-4.1.8-.9 2.6 1.1 2.6 3H745l.2.1zm3.4-19.4c.2.6-.5 1.4-.7 2.1h-.6l1.7 3.9-.2.2-2.6-2.4c-1.6-1.1-1.8-2.2.6-2.8l-2.2-2c1.7-.9 3-.5 3.7 1.3l.2-.4zM752 148c-.66.6-1.1 1.5-1.75 2.3l-2.4-2c-.4-.2-.63-.7-.63-.9.5-1.3.9-2.6 1.5-3.9.7.6 1.4 1.3 1.8 2.1.24.46.46 1.1 1.1 2.4l.44-.16zm-.17-35l-1.77 3.5-3.7-6 5.2 2.4h.2zm7.4 2.9c-.2.8-.7 1.5-1.3 2.7l.4 1.3c-2.6-.4-5.2-.8-7.4-1.2l.44-3.4.45-.2.8 2.4c1.3-.2 3.5.9 3.9-1.9 0-.4 1.1-.9 1.5-1.3.2.6.6 1.3.6 2l.4-.2zm4.3 3.7c-2.4-2.3-2.4-3-.65-4.9.86 1.6 2.16 3 .64 5v-.1zm6.3 14.5l-7.6 1.8c.2-3.8-3.26-3.1-5.22-4.7l4.8-1.3.5-2.3 1.3.4c-.6 1.9 1.1 1.9 2.2 2.6l3.9 3.3h.3zm-58.02-6.8v-.1.2-.2zm0 0v-.1.2-.2zm0-.1c.2-1.3-2.1-1.77-1-3.5l-.4-.44c-1.2-.6-3.4 0-4.1 1.3h.4l2.6.7-.2.9c-.6 0-1.1-.2-1.3-.2l-2.6 2.8c.9 1.3 1.5 1.8 2.6 0 .7-1 2-2.3 3.9-1.3l.3-.2z"/><path d="M787.74 122.05l-2.98-2.83c2.4-1 3.26-.2 2.98 2.83zM720.6 105.6h2.18c.1.65.22 1.3.37 2.17l-2.4-2.17h-.14zm70.8 46.28c4.56 1.63-1.68 3.26 2.95 4.9-1.24 2.25-2.6 2.42-4.44 1.66-1-.43-2.3-.26-3.5-.37l-.1.76 1.5 2.5c-.6.4 9.6.74 9 1.13l.9 1.74-.6-.17-1.4 3.26c-.6.8-1.4 1.9-2.6 2.6-1.3.6-2.9 1-4.4 1.7l1.1-3.1c.1-.3 0-.5 0-.7l-3-1.3 1.5 2.8c-2.5-.9-4.7-2.2-7.1-3.3-2.4-1.3-4.8-1.3-7.1 0 1.5 1.7-27.9 3.5-26.5 5.2h5.2l1.1-.7-3.2-1.5-.5.2c.2.6.5 1.1.8 1.7h-29c.3-.5.5-.9.5-1.6.2-2.8 1.7-3.1 4.1-2.2l.4-.7c-.4-.5-.6-1.1-1-1.1-1.5 0-3.5-1.6-4.8.6 0 .2-.4.2-.8.4l-2.2 1.6 2 2.8h-2l-1.9-9.6c.4.2.6.2 1.1.2l1.9-3.5-3.7-.4 50.2-50.2c1.7-1.1-57.8-2.2-56.1-3.2h11.1l-.2.2c.5.4.9.6.9 1.1 0 .6 2.2.8.5 1.9.9.4 1.9 1.5 2.2 1.3 1.3-.9 2.6-2 3.5-3.3.4-.7 0-1.1-.5-1.5h40l-1.3 1.3c.9 0 1.7.6 2.2.2.6-.4 1.3-1.1 1.5-1.7h4.1l-2 .4c.4.9.7 1.7 1.1 2.4.4.9 1.1 1.5 1.5 2.4 1.1 1.7 2 0 2.8-.2l1.6-.5-1.9-3.9 1.3-1.1h3.1l-.7 1.1c.9 0 1.8.2 2.6 0 1.1-.3 2-.5 3.1-.9-.2 3.9-1.1 4.5-4.5 4.3-1.1 1.3-2 2.8-3 4.1.9.2 1.3.2 1.5 0 .9-1.1 1.6-2.6 3.1-.9.3.2 1.6-.5 1.8-.9.7-.9.9-2 1.5-3.5 1.3 1.3 2.2 2.2 3.1 3.3.5.4-2.8 4.3-3.5 4.1-.4-.3-.6-.9-1.1-1.4l-1.9 3-3.3.8c-1.3.2-3.1 1.9-3.8-1.8l-1.5 4.1c1.1 0 2.2.4 3.3.2 1.1-.3 2-.9 3.1-1.3.1.6.1 1 .1 1.3l-.6 1.5h1.8c1.1-.2 2.2-.7 3.2-.9.9-.2 1.6-.6 2.6-.9.3.2.3 1.1.3 1.3 1.3.2 2 .2 2.9.7.2 0 .2.9 0 1.1-.6.9-1.3.9-2.6.2-.9-.7-2.4-1.7-3.7-.2l.4 1.7-5.2.6c.5.9 1.1 1.3 1.1 1.7-.4 1.8.5 2.4 1.9 2.6 1.8.2 2.8-.6 3.3-2.1l.9-2.2 2.6 3.7c2.3-1.1-6.1-2-3.4-3.3-1.5 1.7 8.1 3.2 7 4.8-3.6 3.7-9.6 1.5-13.7 5.4.8.4 1.4 1.1 2 1.1 2.6.2 2.8.2 4.9 2.8l-2.6-1.5-.2 3.4h-.9c-.4-.7-.6-1.3-.8-2-1.1-2.9-5.7-4.8-8.5-3.5-1.7.8-2.8 1.5-.4 3.2h-.9l-2.4-2.2c-.4.9-.6 1.8-1.1 2-1.3.7-2.8.9-4.1 1.5-1.1.4-2.2.8-3.1 1.5-.6.4-1.1 1.3-1.1 1.5-3.2-1.3-5.6 0-8 .4-2.6.6-5.4 0-7.6 1.9 2.4.4 4.8.2 7 .4 1.1 0 2.4.6 3.7.6 3.3.2 6.5.2 9.8 0 1.7-.2 3.3-1.1 4.8-1.5 1.9-.6 3.9-1.3 5.4-2 1.1 0 2 0 2.8-.2 1.3-.4 2.6-1.1 3.9-1.5l10.3-3 .9 2.2 1.1-.2-.4-.5c.2-.7.5-1.5.9-1.7 2.1-1.6-6.3-2.9-3.9-3.9.4-.3 1 .2 1.5.4-.2.5-.5.9-.9 1.1-.9.4-2 .7-3 1.1 2.6 1.7 3.3 1.7 5-.2.2-.4 1.1-.4 2.2-.9-.8 1.1-1.3 1.7-1.7 2.2-.9.6-1.7 1.5-2.8 1.7-3.9.4 3.5 1.9.9 5 2.9 1.3-5 .4-4.5-2.2 2 1.9 5.7.4 6.8 3.9l-2.3-.2 2.6 2.6v.6c-1.5 0-2.8.2-4.3-.2-1.7-.5-3.2-1.3-5.2-1.8-.9-.2 8.9.2 8 .4l-.2 1.1-.2 2.4zm-76.75-44.7l.6 3.6c1-1.03 1.97-1.75 1.84-1.96-.4-.76-1.1-1.3-1.7-1.96l-.8.33zm-1.52 5.7l2.83-.65-1.7-2.05-.5.44-.22-3.7-1.95-.43-.3 2.1c-.5-.7-.7-1.1-.9-1.5-.7-.9-1.3-1.1-2 .2-2 2.8-1.8 3.7 1.7 6.3l1.9-3.9.6 3.9.2-.8zm5.1 19.66c-.16-1.15-.45-2.28-.66-3.32-1.35 0-2.18-.04-3.7-.07.87 1.74 1.6 3.26 2.43 4.68.1 0 1.03 0 1.42-.22.43-.2.65-.8.65-1h-.15zm61.66 15.82l.2.96 8.5-1.15-1.6-3.05-.5.22c.2.44.4 1.1.6 1.74-2.2.65-5.2-1.3-7 1.1l-.4.18zM749.4 153l11.74 1.62.2-1.1c-3.9.06-7.6-2.55-11.74-1.8v1.3h-.2zm22.6-16.46l-4.13-1.43 3.92-1.9c-2.2-.4-4.4-.7-6.6-1.1l-.2.6c3.2.3 2.4 2.9 3 4.5.2.5.8 1.1 1.1 1 1.1-.4 2.1-1 3.2-1.5h-.5zm2.4-5.56c.65-2.1-.66-2.6-1.96-3.04-.23-.07-1.1.87-1.1 1.24.22 1.67 1.52 1.95 3.05 1.8zm-.44 2.6l1.1 1.74 5.42-1.26v-.8l-6.3.33h-.2zm-3.48-10.05c-.43 0-1.3 1.15-1.3 1.73.22.66.87 1.48 1.52 1.8 2.4 1.03 4.35-.12 6.1-1.47.42-.3.42-.8.64-1.7-2.4-.2-4.6-.5-6.54-.5h-.44zm-6.74-4.3l.2.6c4.35.72 7.4.05 8.05-1.8l-8.1 1.2h-.2zm-1.75 9.42c-1.1-.2-2-.43-2.9-.65-.5 0-.9.22-1.3.44.2.43.2.87.4.87 1.7.5 3.2.9 5.2 1.3-.5-4.7-1.6-5.8-4.8-4.7l3.4 3.1-.2-.2zm-12.6 10.22c-2.9-1.1-4.6 1.3-6.6 1.52l-.5 5.8c1.5 0 3.4 0 5.2-.2 2.4-.3 5-.7 7.2-1.6 3-1.1 5.8-2.6 8.4-4.2.8-.5 1.1-1.6 1.7-2.6l1.5 1.7-.5-4.8-2 1.5-1.1-2.6-2.2.6c-.9.2-1.8.4-2.6.9-.5.2-.9.6-1.3 1.1H755c-.2 3.4-3.7 1.7-5.2 3.4l-.6-.9zm-8.1-5.65c.6 0 .8-.22 1.1-.22 0 1.52-.3 2.82 0 4.35 0 .2 1.1.65 1.5.65 2.2-.65 4.1-1.3 6.1-2.18.6-.2.8-1.08 1.3-1.73-.9-.3-2.4-1.4-2.6-.9-2 1.9-2.9-.2-4.8-.9l3-2c-1.6-2-2.6-1.6-5.2 3.2l-.5-.5zm-.5-22.6l2.6-.65c0-.22 0-.44.2-.87-.9-.44-1.6-1.1-2.4-1.1-1.8.23.4 1.75-.5 2.84v-.22zm-2.6 9.56c1.5-.43 2.4-.87 3.4-1.3l-1.3-1.96-2.2 3.26zm-1.6 6.95h-4.2c.9 1.3 1.5 1.96 2.4 2.83l1.9-2.6-.2-.23zm1.1 8.04c2.1-1.74 2.4-4.13.6-5.43-2.4 2.6-2.7 3.04-.5 5.43h-.3zm-5 3.04c.2.3.8.5 1.1.3.8-1.1 1.5-2.1 1.9-3-.2-1.5-.9-2.1-2.2-1.3-2.4 1.5-2.6 3.1-.7 4.4l-.3-.2zm-3.3 7.4c-1.3.9-1.3 2.2-.9 3.1.2.5 1.9.7 2.6.5 1.3-.2 2.8-.4 2.8-2.4 0-.4 1.7-.8 2.8-1.5-.9-.9-1.5-1.9-2.6-2.8-.2-.2-1.1.2-1.6.7-1.1.9-2 2.2-3.1 2.9l-.3-.2zm8.5-2.6c.9 0 1.5-1.1 2.2-1.7l-.5-.4-4.2.2-.2.7c.8.7 1.9 1.5 2.8 1.5l-.3-.2zm2.4-6.1c.2 0 0-.6 0-1h-.7c0 1.8-1.8 1.3-2.7 2l-.9 1.5.8.9c1.3-.9 2.6-1.7 3.7-2.8l-.4-.4zm-9-27.8c.1 1.3.1 2.6.3 3.8 0 .5.4 1.2.8 1.3.4.2 1.1-.1 1.5-.4.4-.6.8-1.4 1.3-2.1-.7-2.3-2-3.7-4.2-2.5l.2.1zm-.2 13.7c2.2.1 4.2 3.1 6.9.2-2.5-.1-4.7-1.4-7-.2zm-7.6 4.7c1.2 2.8 3.9 3.3 6.4 3.9 0 .3-.1.5-.2.7l-2 .7 2.6 1.8c.2-.6 2.4-.8.8-2.1-.1 0 0-.2.1-.4 1.3-2.2 1.1-2.8-1.4-3.3l-6.1-.6-.3-.4zm4.9 8.7c-.4-.6-.6-1.5-1.3-2.2-1.5-1.1-2.5-3.5-5.1-2.4-.4.3-.8.5-1.7 1.1 2 1.5 3.5 2.8 5.2 3.9.7.5 1.9 0 2.8-.2l.1-.2zM735 160c-.43-.23-.87-.45-1.35-.45-1.08 0-2.17-.2-3.7-.2 1.3.86 2.33 1.5 3.27 1.95.43.2 1.1 0 1.74-.23.13 0 .2-.65.15-.65l-.1-.42zm2.4-3.28l3.58-2.6c-.2-.44-.4-.66-.4-.66-3.5-1.08-7.4-.86-11.1-.43-1.5.2-2.83 1.1-1.96 3.04l8.9 1.74-.85-3.2 1.07-.4.44 2.4.3.2zm17.88 13.48c-.2-.44-.85-1.1-1.3-1.53-.3-.2-.8-.43-.9-.65-.86-2.4-2.04-.9-3-.45 1.3 1.3 2.66 2.6 4.14 3.9.28-.2 1.17-.86 1.08-1.08v-.2zm9.24-4.57c-.22-.65-1.52-1.1-2.6-1.52l-.66.9 1.3 2c-.2.5-.86.7-.86 1.1 0 .7.44 1.1.66 1.8.65-.2 1.52-.4 1.74-1.1.42-.8 1.07-2.1.8-2.8l-.38-.2zm7.4-1.74c-1.75-2.6-4.35-.9-6.75-.9 2.4-.2 4.12 3.2 6.73 1.1v-.3zm1.5-4.8c-1.72-2-3.9-3.1-6.5-3.7-2.83-.7-5 1.1-7.62 1.5-1.07.2-2.16.2-3.03.2-3.27.2-3.9.4-6.1 2.6l-1.3-2.4-.65.8c-.3 2.4.15 2.8 3.2 3 2.62.2 3 0 3.38-3.1.23.6.45 1.3.88 2.2l1.1-1.8-.65 3c3.05.2 6.1.4 9.14.4 2.16 0 4.66.2 6.3-1.9.2-.5 1.23-.3 2.17-.5l-.3-.7zm1.97-8.9c.2 0 .4-.7.4-1.1-.2 0-.7-.5-1.1-.5-1.1.4-2.4.8-3.5 1.5l.2.8 4.1-.7-.2-.3zm11.3 9.5c-2-1.1-3.3-2.2-4.8-.2-.4.7-1.8.7-2.6.9l-.2-.9 4.7-3.1-4.8-2.1-.7 7.1-.7-.2-1.8 2.4.6.5 1.6-1.1.8 1.4c.2-.7.7-1.3.5-1.8-.4-1.5-.2-1.5 1.5-1.5 1.8 0 3.7-.9 5.9-1.5h-.2zm2.1 1.9l-.2 2.6h.2l-3.1.6c.2.6.4 1.5.8 1.7 1.3.6 2.8.8 4.2 1.3.5-1.8-.7-2.9-2-3.7l3.4-.7v-.9c-1.1-.3-2.2-.5-3.1-.9l-.4-.2zm-32.6-25.9h.2-.2zm.2 0c1.3-.5 2.4 1.7 3.7.2 0 0 .4.2.6.4 1 1 .8 3.4-.3 4.3v-.5l-1.1-2.4-.7.4.6 1.1-2.2 3c-1.3-.7-2-1.1-.5-2.6 1.1-.9 1.9-2.4.6-4l-1-.2zm39.1 38.4h-.6c.2 0 .4 0 .8.2l-.2-.2zM139.1 96.5c.2-1.1 1.03-2.4.75-3.26-.44-1.1-.65-2.18.43-2.6.65-.23 1.96 0 2.4.64.65.87 1.08 1.96 1.73 3.04l-1.9.22c-.6.22-1.1.43-1.5.43l.2 1.1c.9.43 1.8.86 3.5 1.5-2.4.23-3.9.66-5.6.66-.2 0-.6-.65-.4-1.08l.6-.65zm8.55 1.3l.96-5.87-3.4.44-.4-.65c.8-.66 1.8-1.74 2.2-1.74 1.2.43 4.9-.87 2.6 2.82-.1 0 0 .22.1.44 1.3 1.95 0 2.82-1.8 4.34v.22zm10.22 3.26l-1.3-3.04 2.47-.22-1.08 3.7-.1-.44zm-4.13-7.17l.87.4c-.8 1.9-1.5 3.7-2.3 5.6l-.7-.5 2.2-5.7h.1zm4.35-2c-1.6.6-2.4 1.1-3.3 1.3-.7.2-1.8 0-2.1-.7-.5-.7-.7-1.5-1.1-2.4.8 0 1.9-.4 2.6-.2 1.3.4 2.6 1.3 3.9 2.1l-.1-.2zM87.4 88c-1.2.87-2.22 1.5-3.33 2.4-.53-2.6.42-3.26 3.3-2.17l.03-.22zm-54.7 38.45l-1.96-.44c.43-.6.65-1 .87-1.7l.7-1.7 2.6-.6c-1.1-1.5-1.5-2.2-1.4-3.2l4.1 3.1 1.8-3.5c0-.3.1-.7 0-.9-.2-.2-.6-.2-1 0l-4.8 1.3c.2-.7.7-1.7 1.3-3.3h-1.1v-.6c.9-.2 1.8-.7 2.8-.9l-1.7-1.5c2.4-1.8 3.3-5 6.8-5.5l-1.9-2.4 3.5-1.3-.6-1.9c2.4-.8 5.2 1.6 7.2-1.7-1.1-.2-1.5-.4-2.2-.6v-1l7.2-.8c-1.5-.9-2.8-1.5-4.1-2.2 1.1-2.8 2.4-2.2 3.9-.4-.2-3.7-.2-3.7 1.6-3.5l-.4 2.8c1.1-.6 1.8-1.3 2.4-1.5.7-.4 1.3-.6 2-.9l-.4.7c1.3 1.8 2.4 3.3 3.9 5.5 0-3.9 0-3.9 2.8-4.5 0 2.6.9 3.7 2.6 3.3l.2 4.2c1.1-.2 2-.2 2.6-.4l2.9-1.1c2-.6.4-1.9.4-2.8v-1.9l-4.3 1-3-6.6.5-.4 3.5 3.3c.2-.8.7-1.7.7-2.6.2-1.1 0-1.9 0-3 3.9.9 4.4 2 3.3 5.5l3.4 3.7c.5-.7.5-1.1.5-1.5-.7-1.1-2.2-2 0-3.3.2 0 0-1.3-.4-2-.7-.7-1.5-1.1-2.8-2.2 1.3-.9 2.4-1.8 3.7-2.2.6-.3 3.7 3.7 3.2 4.3-.3.4-.9.4-1.6.9l2.6 2.4v3.9c0 1.3 1.3 3.5-2.4 3.2l2.8 2.8c.4-1 .9-2 .9-3s-.5-2-.7-3.2c.8 0 1.1 0 1.3.2.6.2 1.1.6 1.5.8.2-.6.4-1.3.4-1.7v-3.2c0-.9-.2-1.8-.2-2.8h1.3c.5-1.1.9-1.9 1.3-2.6.3-.2 1.1 0 1.4.2.6.9.6 1.6-.3 2.4-.7.9-2.2 2-1.1 3.7l2-.2-.5 5.3c.9-.4 1.8-.8 2.2-.6 1.8.7 2.4 0 2.8-1.3.7-1.7 0-2.8-1.5-3.7l-1.9-1.3c1.7-.6 2.8-1.3 4.1-1.7l-1.5-8 3.9 4.8c3 4.1-.4 9.5 2.6 14.5.7-.8 1.3-1.3 1.5-1.9.9-2.6.9-2.8 3.9-4.1-.8.9-1.5 1.6-1.9 2.2l3.5.9v.9c-.6.1-1.3.5-1.9.5-3 .4-5.6 4.5-5.2 7.4.5 1.8.9 3 3.3 1.1v.8l-2.8 1.7c.8.5 1.7.9 1.9 1.4.4 1.4.4 3 .6 4.4.2 1.1.5 2.2.9 3.2.2.8 1.1 1.3 1.3 1.5-2 2.9-1.3 5.7-1.1 8.1.2 2.6-1.1 5.3.4 7.8.9-2.4 1.3-4.5 1.9-6.9.3-1.1 1.1-2.1 1.3-3.4.9-3.2 1.6-6.5 2-9.7.3-1.7-.2-3.4-.4-5l-.6-5.8c.2-.9.4-1.9.4-2.8 0-1.3-.4-2.8-.6-4.2-.2-3.2-.6-6.7-.8-10.4l2.2-.5.2-.8-.5.4c-.6-.4-1.5-.6-1.7-1.3-.9-2.4-1.8-5-2.4-7.6 0-.4.4-.8.9-1.3.2.5.7.7.9 1.1.2 1.1.2 2.2.4 3.5 2.4-2.4 2.4-3 .6-5.2-.2-.7-.2-1.3-.4-2.4.9 1.1 1.5 1.5 1.7 2.2.4 1.1 1.1 1.9 1.1 3-.2 3.9.4 7.6 2.8 10.9 2-2.4 1.8-5.4-.8-6.5 2.4-1.3 1.5-5.4 5.2-5.7l-.9 2.2c1.5-.8 2.4-1.5 3.2-1.9l.7.2c-.3 1.5-.5 3-1.1 4.3-.7 1.5-2 3.1-2.8 4.6-.5.6-.3 1.7-.3 2.6l.9.4 7.6-12.4c1.9 1.8 1.9 3.1.6 4.6-.7 1.1-.7 2.4-1.1 3.5l.7.4 2.9-.9.7 2 1.9-.6-.4.6c1.1.7 1.9 1.5 3 2.2.6.7 1.7 1.8 1.9 3.1.7 1.5.7 3.1.9 4.6l-2.6-1.5h-.6l-2 2.6 3.3-.9c-1.5 2.4-3.2 4.4-4.8 6.3-1.5 2.2-2.4 4.6-1.3 7l11.8-5.7c-.2-1.9-3.3-2.8-2-5.4l2.2 2c.9-1.1 1.3-1.9 2.2-3.5.5 2.6.7 4.6.9 6.8l1.9-1.5c.9 1.7-1.9 3.5.2 5 1.3-1.3 2.4-2 3.9 0 .6-1.3.7-2.6 1.1-3.9.4-1.1 1.1-2.2 1.6-3.1l.2.3-.3 6.3.6.4 2-2.6h.4c-.5 3.7-2 7.6-.3 11.7.9-4.7 1.5-5.8 2.8-5.6l-1.3 2 .4.5 2.4-2.1-.2 1.7c.9.6 1.6 1.1 2.2 1.1.7 0 1.5-.5 2.8-1.1-.8 1.1-1 1.7-1.5 1.9-1.5.6-2.6 1.3-2.6 3-.2 1.6-.9 3.1-.4 4.2.7 1.5.2 1.9-.6 2.8-1.1 1.3-1.7 2.8-.7 4.5.9 1.8 1.3 3.5-.2 5.3l-1.5 2.1c1.1 1.3 2.4 2.2 3.1 3.5.2.4-.8 1.5-1.5 2.6l-.7-1.5-1.9 2.2c1.5.4 2.8.7 4.1 1.1l-2 2.4c-.4.7-.9 1.5-1.5 2.4.9 1.1 1.5 6.7.9 7.6l1.1 1.8c-1.8.9-2.6 3.7-5.5 2.4.4 1.1 1.1 1.8 1.7 2.2 1.1.9 1.3 3.5.2 4.1-.4.2-.6.4-.9.6h-23.5c-.2-.4-.7-.6-1.5-.9l.5-2.8-3.7.7c.2 1.1-1.3 2.6 1.3 2.9.2 0 .2.2.4.5l-18.2.2c.2-.2.4-.7.5-1.1l-3-2.6-1.3 3.7-51.3.2c-2.4-7.6-6.3-16.9-3.9-18.2 2.8-1.3-23.1-21.1-20.2-22.8l.9-1.4zm117.82 21.73l2.83 1.73.6-.6c.07-1.3-.52-2.2-1.95-2.3-.5 0-.96.7-1.43 1.1l-.05.1zm-9.13 12.16l4.5-3.7c-2.5-.65-4.3.87-4.5 3.7h-.1zm-23.6-17.17l2.5-.66-.7-2.4c1.5.7 1.9-.8 2.3-1.6.4-.7 0-1.7-.3-2.7h-.8l-1.1 4.6v.2c-.9.7-2 1.3-3.1 2.2 0 0 0 .7.2.7.2.2.6.2 1 0l-.3-.2zm4.1-25c.3-2.28 3.9-3.32 2.4-6.4-3 1.3-1.8 4.12-2.4 6.3v.1zm.9 45.94c.1-.3-.1-.9-.3-1.1-.4-.4-1-.6-1.5-.8-2.8-.6-2.7-2.4-1.3-4.3l-.6-.4c-.5.3-1.1.5-1.3.9-.2 1.6-2.2 3.1-.2 5 .2.1 0 .5.2.9l1.1 2.4c1-.4 2.3-.8 3.4-1.4.4-.2.6-.6.8-1.1l-.5.2zm11.3-49.3l2.5-.4-1-4.3c-2.5 1.1-.8 3-1.6 4.8zm-5.8 16.6l-2.3 2.9.2.5 2.9-.4-.9-3-.1.2zm-1.2-2.1c-.7 0-1.3.5-1.9.9-.3.2-.5.7-.9.7-2.5.5-1.2 1.8-1.1 2.9l4.5-3.2c-.2-.4-.6-1.3-.8-1.3v.2zm-2.7-10c-.7 0-1.3 1.3-2 2.2 0 0 .7.9.9.9.6-.2 1.3-.6 2.1-.8.2.2.4 1.1.9 1.1.6 0 1.3-.2 1.7-.4-.3-.5-.3-1.4-.7-1.7-.7-.6-1.8-1.5-2.6-1.3l-.5.3zm.8-24.5l2.4.7h.2v3.1c.6-.1 1.7 0 1.9-.4.8-1.1 1.5-2.5 2.1-3.8-1.7-.9-2.8 0-3.9 1.1V92l-.9-.2c-.4 1-.9 1.96-1.5 2.9l-.4.32zm-8.7 8.3l6.7 2.2c0 .2-.3.5-.3.7l2 2.2.7-.4-.9-1.9 1.5-.5c-.6-.4-1.1-1-1.5-1-1.5.1-1.5-.1-1.3-1.7.4-1.8-.2-3.8-.2-6.2-1.5 1.7-2.9 2.7-1.3 4.8.4.5.2 1.7.4 2.6l-.9.2-1.5-5.2c-1.3 1.7-2.2 3-2.9 4.1l-.7.5zm-2.2 19.4c0 1.1-.2 2.1-.5 3.2-.5 3.2-.5 3.9 1.3 6.5l-2.6.9.6.9c2.1.8 2.6.5 3.7-2.5.8-2.4.4-2.8-2.4-3.8l2.4-.4c-.5-.4-.7-.8-1.3-1.5l2.8 1.3c.8-2.9 1.7-5.8 2.1-8.9.4-2.1 1.3-4.4-.7-6.5-.2-.3 0-1.3.2-2.3-2.4 1.5-3.9 3.3-5 5.6-1.3 2.6 0 5.2-.2 7.8l-.7.1zm-6.1 8.5l1.3.4 4.1-11.1-.9-.4c-.9 4-4.2 7-4.2 11.1l-.5.1zm-3.1 19.8c-.2 1.3.3 2.8 2.6 2.4 1.1-2.7 2.1-5.4 3.4-8.2H108c0-.4 0-.7-.04-1.2l2.6.1-1.8-4.1c-.58.2-.87 0-.87.2-1.8 3.3-2.4 7-2.7 10.7v.3zm6.1-50.2h1l.6-8.4-3.3.9c0 .1.2.3.2.5l1.9-.2c.4 2.4-2.2 4.9-.2 7.2l-.4.2zm-.7 9l.8.1c0-1.3.2-2.7.2-4.1 0-.2-.5-.4-.9-.7-.2.3-.7.7-.7 1l.7 3.8-.2.1zM81.2 139l-1.07 4.1 3.3-1.7-2.28-2.48.1.04zm7.83.6c-1.15-2.3-3.5-3.1-5.13-1.7 1.95 3.04 2.4 3.04 5.2 1.73l-.07-.04zm-10 11.8c3-.6 3.9-3.1 5.06-5.44l.4.38.1 2.14 2.2-2.13c-.7-.4-.4-2.5-2.1-1.3-.1.07-.4-.1-.5-.2-1.8-1.74-2.6-1.66-3.5.65-.7 1.9-1.1 3.9-1.8 5.9zm9.45-3c-.7.2-1.77.27-2.3.77-1.3 1.28-3.9 1.76-3.27 4.5.2.46.5.8.7 1.76 2-1.5 3.5-2.7 4.8-4.22.7-.5.2-1.8.4-2.7h-.3zm3.02-4.14c-.9-.94-2-1.8-2.86-2.55-1.54 0-2.2.4-1.58 1.9.83 2.7 2.4 3.2 3.9 1.6.2-.2.4-.8.4-.9h.05zM94 141c-.67-1.4-1.33-2.8-2.2-4.16-.2-.22-.86-.1-1.3-.04l-.1.8c1.75.42.88 1.94 1.3 2.8.24.45.67.67 1.1 1.1l.87-.65.3.17zm1.3 1.9c.64-.76 1.72-1.45 1.94-2.32.1-.72-.88-1.7-1.3-2.52l-.5.44-.67 4.14.45.44.06-.15zm3.7-.95c-1.1.63-2.4 1.17-3.4 2-.23.15 0 1.2.2 1.7.66 1.3 1.53 2.4 2.2 3.75.4 1.57 1.72 1.74 2.8 1.44.44-.15.87-1.67.87-2.54-.2-1.26 0-2.73-1.94-3.3-.65-.17-.65-1.85-.87-3.08h.1zm-4.8-30l1.02 2.32-2.6.43c0 .65 0 1.46.03 2.24 0 .9 0 1.9.2 2.8.08.5.44 1 .75 1.5l-.43 1.76c3.27 1.02 1.1 4.13 2.33 5.87-1.8 2.46.23 4.83 0 6.75l5.66 1.64c.22-1.4.65-3.25.8-5.1.2-2.4.2-4.8 0-7.2-.45-3-1.3-6.05-2.4-9.1-.2-.87-1.3-1.3-2.18-1.95l1.96-1.1-4.8-.4-.34-.4zm1.3-8.18l1.96-.65-.14-5.5h-.87l-1.1 6.3.12-.16zm-3.26 7.8l.42.55c.86-3.1 3.26-1.67 5-2 .43-.1 1.26-.58 1.2-.8 0-1.13-.43-2.2-.87-3.36l-2.2 3.7c-.3-1.7-.7-2.9-1.1-4.3l-2.2 6.24-.4-.03zm-4.8 21.4l-1.2-3.36c-2.4 1.2-2.06 2.3 1.96 5.9v-1c1.3.3 2.7.7 4.14 1 .22 0 .87-.8.87-1.3-.2-2.2-.4-4.3-.8-6.5-.1-.6-.9-1.1-1.4-1.7-.6.9-1.7 2-1.5 2.4 1.5 2.4-.8 2.9-1.9 4.4l.1.4zm2.26-29.16c-.2.2.66 1.3.88 1.3 1.74.2 2.17-1 2.4-2.5-1.97-1.1-2.62 0-3.5 1.1l.23.2zm-5.2 13.5l3.48-2.8c-.63 1.2-1.07 1.9-1.3 2.7-.2.4 0 .9 0 1.3.23 0 .88 0 .88-.2.66-1.4 1.3-2.9 2.2-4.6-5-.6-6.1.2-5.67 3.7h.4zm.22-12.1c-.22.5.87 1.6 1.3 1.7.65.2 1.52-.2 1.96-.8 1.54-1.9.67-4.1-.2-6-.22-.2-.87-.4-1.52-.8-.65 2.4-1.5 4.4-1.74 6.5l.24-.3zm-8.92 37.6c.44-2.1 3.92-3.5 1.74-6.7-.65 2.5-2.4 4.3-1.74 6.8zm3.7-40l-.43 8.1h.66c1.52-4 1.52-7.2-.22-8.1zm-8 30.1l2.6 2.8-.44-3.5-2.4.8h.23zm-20.4-15l-3.05.3c-.54.1-1 .1-1.54.1v.9c2.2.4 4.4 1 6.6.9.5 0 1.1-1.8 1.5-2.8 0-.2-.8-.8-1.5-1.2-.6-.4-1.5-.7-2.4-1.2l.5 3.2v-.1zm-1.4 19.8l2.52-1.7c-1.3-.2-1.95-.5-2.6-.5l-2.18.7c.28.7.76 1.1.98 1.8.43 1.1.65 2.2 1.1 3.9.64-.8 1.3-1.5 1.36-1.9 0-.4-.8-1.1-1.3-1.5l.12-.5zM62 161l-3.58-2.73 4.13.08-.23-3.04-2.22 1.1.22.5c-1.13-.2-2.28-.4-3.7-.6l-.87 1.6 1.96.7c-.6 0-1.3.2-1.7.5-.9.5-1.3.9-.3 2 2.4 2.4 3.3 2.4 6.5-.4l-.2.8zm3.8-24.9c-2.38.14-3.9 1.03-3.25 3.46 1.3.22 2.6.48 3.86.57.6 0 1.3-.22 1.6-.65.2-.22.2-1.1-.1-1.52-.5-.65-1.3-1.1-1.8-1.74l-.1-.13zm-.75-7.94c-.56.65-1.53 1.26-1.58 1.95-.1 1.8 1.87 0 2.57 1.1-.1-.8-.2-1.7-.23-2.5l-.7-.4zm-.3-25.47l2.83 4.4c.33-.8 1.04-1.7.87-2.3-.6-1.4-1.52-2.7-3.7-2.2zm-4.87 44.8l-3.26 2.5.57.8c.4-.2.8-.7 1.3-.6.6.2 1.3-1.8 1.9 0 .6-.5 1.7-1.3 1.7-1.8-.7-1.6-1.3-2.9-2.4-4.2-.9-.9-2.9 1-2.9 3l2.6.2.3-.2zm-3.56-19.3c-.22.5.22 1.3.43 2l.44-.1-2 3.9.2.2c.8-.7 1.5-1.5 2.4-2.4 1.3-1.1 1.7-2.2-.7-2.8l2.1-2c-2-.9-3.3-.2-3.7 1.5l.6-.4zm-3.7 14c.44.6 1.1 1.5 1.74 2.3.67-.7 1.53-1.3 2.2-2 .2-.2.64-.7.42-.9-.43-1.4-1.1-2.7-1.52-4l-1.96 2.1c-.43.5-.65 1.2-1.08 2.4h.2zm.68-35.4l1.63 3.5 3.6-6-5.2 2.4h-.03zm-7.6 3c.14.8.7 1.5 1.3 2.7l-.57 1.3 7.43-1.2-.5-3.5-.38-.3-.95 2.4c-1.3-.3-3.27.7-3.92-2.1 0-.6-1-1-1.5-1.4-.2.6-.6 1.4-.6 1.9h-.2zm-4.36 3.7c2.38-2.3 2.3-3 .56-4.9-.8 1.5-2.1 3-.55 4.8zm-6.3 14.5l7.53 1.8c-.3-3.8 3.22-3.2 5.22-4.8-1.8-.5-3.4-.9-4.8-1.3l-.5-2.2-1.5.3c.6 1.9-1.3 1.7-2.2 2.6l-3.8 3.4v.1zm58.64-6.9v-.1zm0 0v-.1zm0-.1c-.26-1.3 2.13-1.9.96-3.5l.5-.5c1.15-.8 3.37-.1 4.13 1.2h-.44l-2.57.6.2.8 1.2-.4 2.6 2.9c-.87 1.1-1.53 1.7-2.6 0-.66-1.2-1.97-2.5-3.93-1.3h-.06zm-60.33-3v.2l-.2-.2.2-.1z"/><path d="M17.8 121.85l2.98-2.82c-2.4-.98-3.3-.22-2.98 2.82zm67.1-16.42h-2.16l-.35 2.17 2.5-2.17zM.4 156.57c1.25 2.26 2.58 2.46 4.43 1.7 1.08-.43 2.34-.26 3.52-.37l.22.74-1.57 2.6 1.83 1.1-.87 1.73.65-.22c.5 1.3 1 2.4 1.5 3.48.6.87 1.5 1.96 2.6 2.6 1.4.88 3 1.3 4.5 1.75-.4-.87-.8-1.96-1.1-2.83-.2 0 0-.22 0-.43l3.1-1.1-1.5 2.84c2.6-.87 4.8-2.18 7.2-3.26 2.4-1.1 4.8-1.1 7 .2-1.5 1.97 27.8 3.7 26.5 5.45H53l-1.1-.44 3.27-1.5.44.5-.9 2h29.1c-.2-.4-.3-.8-.4-1.5 0-2.8-1.6-3-3.9-2.1l-.4-.6c.4-.2.8-1 1.2-1 1.6 0 3.5-1.3 5 .7.1.3.5.3.7.5l2.2 1.6c-.6.9-1.3 2-2.2 2.9h2l2-9.5c-.4.3-.6.5-1.1.5L87 161l3.7-.47-49.8-51.3c-1.7-1.06 24.6-1.76 22.8-2.8L53 103.5l.2.2c-.43.35-.86.8-.86 1.1 0 .76-2.16 1-.43 2-.8.4-1.9 1.44-2.1 1.22-1.3-.87-2.6-1.9-3.5-3.17-.5-.5-.3-1.04.4-1.43l-6.5 2.16c.4.43.7.8 1.2 1.26-.8.13-1.8.63-2.3.35-.7-.4-1.2-1-1.5-1.6h-4.2l1.9.5c-.4.9-.6 1.7-1 2.4-.4.8-1 1.6-1.5 2.5-1.1 1.8-1.9 0-2.8-.2l-1.6-.4 2-3.8-1.3-1h-3l.7 1.1c-.9 0-1.8.2-2.7.1-.9-.1-1.8-.5-2.9-.8.3 3.9 1.1 4.5 4.7 4.2l3 4.1c-.8.2-1.3.2-1.5-.3-.8-1.1-1.5-2.6-3.1-.9-.2 0-1.5-.5-1.9-1.1-.6-.9-.9-2-1.5-3.5-1.3 1.1-2.4 1.9-3 3-.4.4 2.9 4.1 3.5 4.1.5-.2.7-.9 1.1-1.3l1.9 3c1.3.2 2.2.4 3.3.6 1.3.2 3.1 2.2 3.7-1.7l1.6 4.3c-1.1 0-2.2.2-3 .2-1-.2-1.9-.9-3-1.5-.2.7-.2 1.1-.2 1.1 0 .4.4 1.1.7 1.5h-2c-1.1-.2-2.2-.4-3.2-.9-.9-.2-1.5-.7-2.8-.9l-.2 1.3-2.9.7c-.2 0-.2.8 0 1.1.6.8 1.3.8 2.4.2 1.1-.7 2.4-1.9 3.7-.3l-.4 1.6 5.2.7c-.5.8-1.1 1.5-1.1 1.9.4 1.8-.4 2.4-1.7 2.6-1.7.2-2.8-.6-3.3-2.1l-.8-2.2c-1 1.5-1.7 2.6-2.5 3.7l-7.3-3.1 4.4 5.3c3.6 3.7 9.6 1.5 13.7 5.4-.9.4-1.4 1.1-2 1.1-2.6.2-2.8.3-4.8 3l2.6-1.6c.1 1.3.2 2.4.2 3.7.2 0 .6.2.8.2.3-.7.6-1.1.9-1.7 1.1-2.9 5.7-4.8 8.4-3.5 1.8.7 2.9 1.4.5 3.3h.8l2.2-2.4c.5.9.6 2 1 2.2 1.3.7 2.9.9 4.3 1.5 1 .5 2.1.9 2.9 1.6.6.4.9 1.3 1.1 1.5 3.2-1.3 5.7 0 8 .7 2.6.4 5.5 0 7.6 1.9-2.4.2-4.7.2-7 .4-1.2 0-2.4.6-3.7.6-3.3 0-6.5 0-9.8-.2-1.7-.2-3.2-1.1-4.8-1.5l-5.4-2.1c-1.1-.2-2 0-2.9-.2-1.5-.4-2.8-1.1-4.1-1.5l-10.2-3-1.1 2.2-.9-.1.5-.4c-.3-.6-.4-1.4-1-1.7-2.4-1.4-4.5-2.8-6.9-3.9-.4-.2-1.1.2-1.5.4.2.4.4.9.9 1.1.9.5 2 .8 3.1 1.2-2.8 1.8-3.3 1.6-5.2-.4-.5-.5-1.3-.6-2.2-1.1.9 1.1 1.1 1.8 1.8 2.1.9.6 1.7 1.5 2.6 1.7 3.9.6 7.2 2.1 9.8 5-2.8 1.5-5.7.6-6.3-2.1-2 2-5.7.4-6.8 3.9l2.4-.4L2 151v.7c1.5 0 3 .2 4.37-.2 1.75-.5 3.4-1.3 5.2-1.8.86-.2 1.77.3 2.7.5l.07 1.1h.7c-4.5 1.8-9.1 3.4-13.7 5zM90.9 107l-.66 3.6c-.96-1.02-1.9-1.74-1.8-1.96.34-.76 1.08-1.3 1.65-1.95l.8.3zm1.47 5.7c-.83-.2-1.8-.43-2.83-.65l1.74-2.04.48.4.22-3.7 1.8-.5.22 2.1c.33-.6.5-1.2.87-1.6.65-.6 1.2-1.1 2 .2 1.83 2.9 1.7 3.7-1.78 6.3l-2-3.9-.8 3.9v-.3zm-5.04 19.67c.13-1.15.43-2.28.65-3.33l3.7-.2c-.88 1.73-1.6 3.25-2.46 4.55-.1.2-1 0-1.42-.3-.28-.2-.52-.9-.47-1.1v.2zM25.65 148.2l-.22.94-8.4-1.15 1.5-2.9.45.2c-.22.6-.44 1.1-.65 1.7 2.17.8 5.2-1.1 6.95 1.3l.37-.3zm30.57 4.62l-11.7 1.63-.17-1.1c4.04 0 7.65-2.55 11.8-1.82v1.3h.07zm-22.55-16.45l4.07-1.46-3.9-1.9c2.3-.4 4.44-.8 6.57-1.1l.4.5c-3.2.3-2.2 2.9-3 4.4-.1.5-.8 1.1-1 .9-1-.4-2.1-1.1-3.2-1.5l.2.4zm-2.28-5.57c-.7-2.08.7-2.6 1.9-3.04.1-.08 1.1.87 1 1.24-.3 1.67-1.6 1.96-3 1.8zm.5 2.6c-.4.58-.7 1.14-1.1 1.75l-5.5-1.26v-.8l6.1.3h.3zm3.6-10.07c.5 0 1.3 1.15 1.3 1.74 0 .65-.8 1.52-1.4 1.8-2.4.87-4.4-.22-6.1-1.52-.5-.22-.5-.87-.7-1.74 2.4-.2 4.3-.4 6.5-.4l.3.2zm6.7-4.3l-.2.65c-4.3.7-7.4 0-7.9-1.83l8 1.18zm1.7 9.43c1.2-.3 2-.6 2.8-.65.4 0 .8.3 1.3.4-.2.3-.3.9-.5.9-1.6.5-3.2.8-5.1 1.2.4-4.9 1.5-5.9 5-4.8l-3.5 3zm12.5 10.08c2.8-1.3 4.6 1.24 6.6 1.43l.4 5.83c-1.5-.07-3.4 0-5.2-.3-2.4-.38-4.8-.8-7.1-1.66-3-1.17-5.8-2.7-8.5-4.3-.8-.43-1.1-1.65-1.6-2.6l-1.6 1.64.4-4.78c.8.6 1.3.98 2 1.48l1-2.5 2.1.65c.8.22 1.8.44 2.7.87.5.22.9.66 1.3 1.1h2c.3 3.47 3.8 1.95 5.3 3.47v-.33zm8.5-1.64c-.2-.2 0-.85.1-1.24 0-.08.8 0 .8 0 .2 1.7 1.9 1.18 2.6 1.96.4.35.6.87.8 1.3l-.7.8c-1.1-.86-2.4-1.73-3.7-2.82zM41 165.06c.27-.72 1.64-1.04 2.6-1.43.13 0 .87.87.76.87-.2.87-.66 1.3-1.1 1.96.44.44 1.1.65 1.1 1.1 0 .64-.44 1.07-.66 1.73-.43-.3-1.3-.5-1.52-.9-.43-.9-1.08-2.2-.65-2.9l-.55-.6zm-7.4-1.85c1.9-2.6 4.5-.8 6.8-1-2.4-.1-4.13 3.2-6.96 1h.16zm-1.37-4.9c1.9-2.1 4-3.2 6.46-3.8 2.8-.6 5.2 1.1 7.8 1.6 1.1.3 2.1.3 3.2.3 3.2.2 3.9.5 6 2.6l1.5-2.4.9.9c.4 2.4 0 2.9-3.1 3.1-2.6.2-2.9 0-3.3-3l-.8 2.2-1.1-1.5.8 3.1c-2.8.2-5.9.4-8.9.4-2.2 0-4.8.4-6.3-1.9-.2-.4-1.3-.2-2.2-.4l-1.3-.7zm-1.93-8.9c-.2 0-.3-.6-.5-1 .5-.1.9-.5 1.1-.5 1.3.4 2.6 1 3.7 1.4v.9l-4.1-.6-.1-.1zM19 158.9c2-1.2 3.4-2.2 5-.3.65.6 1.74.6 2.6.9l.45-.82-4.8-2.65 4.8-2c.2 2.54.43 4.8.86 7.1l.7-.12 1.8 2.4c-.2.2-.4.4-.6.5l-1.5-1.2-.8 1.6c-.2-.6-.6-1.3-.4-1.7.5-1.5.3-1.5-1.3-1.5-1.7 0-3.7-.8-5.8-1.5l-.5-.4zm-2.1 2l.3 2.5v.1l3.06.45c-.2.45-.44 1.54-.88 1.76l-4.34 1.3c-.7-1.9.62-2.8 1.92-3.7v-.2c-1.3-.2-2.4-.4-3.5-.7v-.8l3.06-.8.33.4z"/></g></svg>